<?xml version="1.0" standalone="no"?>
<!DOCTYPE svg PUBLIC "-//W3C//DTD SVG 20010904//EN"
 "http://www.w3.org/TR/2001/REC-SVG-20010904/DTD/svg10.dtd">
<svg version="1.0" xmlns="http://www.w3.org/2000/svg"
 width="1200.000000pt" height="800.000000pt" viewBox="0 0 1200.000000 800.000000"
 preserveAspectRatio="xMidYMid meet">

<g transform="translate(0.000000,800.000000) scale(0.100000,-0.100000)"
fill="#000000" stroke="none">
<path d="M0 4000 l0 -4000 6000 0 6000 0 0 4000 0 4000 -6000 0 -6000 0 0
-4000z m3691 3509 c96 -76 130 -111 145 -146 21 -49 17 -122 -9 -168 -28 -50
-184 -185 -213 -185 -22 0 -162 98 -196 136 -26 30 -48 89 -48 131 0 49 39
130 81 170 51 48 142 112 160 113 9 0 45 -23 80 -51z m1938 25 c35 -10 65 -28
90 -55 21 -21 46 -39 55 -39 9 0 16 -7 16 -15 0 -12 -18 -15 -105 -15 -84 0
-105 3 -105 14 0 8 6 16 12 18 19 7 -17 57 -48 68 -57 22 -121 6 -149 -37 -17
-26 -36 -110 -29 -128 4 -8 19 -7 57 6 29 10 70 18 92 18 51 1 119 -30 140
-63 10 -14 26 -26 37 -26 11 0 18 -5 16 -12 -3 -9 -37 -14 -111 -16 -91 -2
-107 0 -107 13 0 8 7 15 15 15 23 0 18 18 -9 35 -27 18 -81 13 -112 -9 -16
-12 -15 -18 6 -87 13 -41 23 -95 24 -121 l1 -48 38 0 c55 0 104 24 127 62 25
41 25 48 0 48 -11 0 -20 7 -20 15 0 12 19 15 115 15 96 0 115 -3 115 -15 0 -8
-6 -15 -13 -15 -7 0 -38 -24 -68 -53 -70 -68 -123 -87 -238 -87 -47 0 -91 4
-97 8 -6 4 -14 21 -18 37 -4 17 -32 60 -63 95 -82 95 -96 138 -72 225 15 54
90 126 154 147 64 21 186 22 254 2z m2060 7 c10 -6 11 -13 2 -29 -6 -11 -11
-33 -11 -48 0 -25 -2 -26 -32 -19 -55 13 -88 9 -114 -16 -25 -23 -84 -107 -84
-119 0 -3 21 -12 48 -19 107 -28 162 -81 183 -179 9 -45 14 -52 35 -52 15 0
24 -6 24 -15 0 -12 -20 -15 -120 -15 -100 0 -120 3 -120 15 0 8 9 15 20 15 19
0 20 4 14 53 -11 94 -49 146 -121 166 l-33 10 0 -115 0 -114 25 0 c16 0 25 -6
25 -15 0 -13 -21 -15 -130 -15 -109 0 -130 2 -130 15 0 10 11 15 35 15 l35 0
0 225 0 225 -35 0 c-24 0 -35 5 -35 15 0 13 22 15 135 15 113 0 135 -2 135
-15 0 -10 -10 -15 -30 -15 l-30 0 0 -100 c0 -75 3 -100 13 -100 7 0 35 39 62
86 28 47 67 101 88 120 31 29 44 34 85 34 26 0 53 -4 61 -9z m821 -6 c0 -10
-10 -15 -34 -15 l-34 0 44 -127 c121 -351 113 -333 145 -333 19 0 29 -5 29
-15 0 -13 -21 -15 -130 -15 -109 0 -130 2 -130 15 0 10 10 15 30 15 17 0 30 4
30 8 0 4 -13 46 -28 92 l-28 83 -23 -55 c-26 -64 -79 -132 -122 -153 -45 -24
-106 -19 -134 10 -53 52 -17 160 106 321 38 51 72 106 75 123 6 30 6 31 -30
31 -25 0 -36 4 -36 15 0 13 22 15 135 15 113 0 135 -2 135 -15z m-5630 -10 c0
-9 -10 -15 -26 -15 -19 0 -24 -4 -20 -17 2 -10 8 -38 11 -63 11 -74 62 -282
81 -329 15 -38 20 -42 43 -38 48 10 58 -5 38 -60 -9 -26 -17 -56 -17 -65 0 -9
-7 -24 -16 -33 -20 -20 -39 -6 -48 35 -10 52 -44 76 -119 84 -73 8 -187 0
-228 -15 -17 -7 -33 -26 -45 -52 -10 -23 -22 -47 -27 -54 -11 -16 -37 -5 -37
16 -1 9 -9 41 -20 71 -21 62 -16 74 32 75 26 0 34 5 40 25 40 138 56 177 109
261 45 70 59 102 57 124 -3 28 -6 30 -50 33 -34 2 -48 7 -48 18 0 11 25 14
145 14 122 0 145 -2 145 -15z m1620 0 c0 -10 -10 -15 -30 -15 l-30 0 0 -95 0
-95 95 0 95 0 0 95 0 95 -30 0 c-20 0 -30 5 -30 15 0 13 22 15 136 15 104 0
135 -3 132 -12 -3 -7 -21 -14 -41 -16 l-37 -3 0 -224 0 -224 37 -3 c20 -2 38
-9 41 -15 3 -10 -28 -13 -132 -13 -114 0 -136 2 -136 15 0 10 10 15 30 15 l30
0 0 105 0 105 -95 0 -95 0 0 -104 0 -105 27 -3 c14 -2 28 -9 31 -15 3 -10 -28
-13 -132 -13 -114 0 -136 2 -136 15 0 10 11 15 35 15 l35 0 0 225 0 225 -35 0
c-24 0 -35 5 -35 15 0 13 22 15 135 15 113 0 135 -2 135 -15z m1910 0 c0 -10
-10 -15 -30 -15 l-30 0 0 -225 0 -225 95 0 95 0 0 225 0 225 -30 0 c-20 0 -30
5 -30 15 0 13 22 15 135 15 113 0 135 -2 135 -15 0 -10 -11 -15 -35 -15 l-35
0 0 -225 0 -225 64 0 c88 0 97 -12 69 -93 -12 -34 -24 -74 -27 -89 -7 -29 -27
-37 -43 -15 -5 6 -17 38 -27 70 -28 92 -26 91 -324 95 -188 3 -252 7 -249 15
2 7 20 13 40 15 l37 3 0 224 0 224 -37 3 c-20 2 -38 9 -41 16 -3 9 28 12 132
12 114 0 136 -2 136 -15z m3160 0 c0 -10 -11 -15 -35 -15 l-35 0 0 -224 0
-225 32 -3 c17 -2 33 -9 36 -15 3 -10 -26 -13 -122 -13 -105 0 -126 2 -126 15
0 8 9 15 20 15 19 0 20 7 20 110 l0 110 -26 0 c-57 0 -119 -54 -139 -124 -19
-64 -19 -96 0 -96 8 0 15 -7 15 -15 0 -12 -19 -15 -110 -15 -91 0 -110 3 -110
15 0 8 8 15 19 15 15 0 20 10 25 44 14 90 108 170 217 183 57 7 50 14 -32 32
-134 28 -221 139 -159 201 19 19 33 20 265 20 211 0 245 -2 245 -15z m-3466
-936 c-10 -20 -12 -35 -6 -41 6 -6 21 -4 41 6 l31 17 0 -47 c0 -40 -2 -45 -17
-39 -29 12 -63 18 -63 11 0 -4 7 -20 15 -36 l16 -30 -45 0 -45 0 17 29 c21 37
11 47 -33 34 l-35 -11 0 43 0 44 35 -15 c19 -7 37 -14 40 -14 11 0 4 36 -11
58 -15 22 -15 22 31 22 l46 0 -17 -31z m1 -214 c0 -38 -37 -48 -55 -15 -14 27
4 52 34 48 16 -2 21 -10 21 -33z m-73 -137 c3 -167 -5 -223 -35 -242 -21 -13
-49 11 -45 38 2 16 10 21 35 21 19 0 35 6 38 14 4 11 -19 12 -137 6 -79 -3
-151 -9 -160 -11 -10 -3 -18 -1 -18 5 0 15 25 19 161 27 l127 7 7 148 c4 82
11 149 16 149 5 0 10 -73 11 -162z m118 13 l0 -148 123 -7 c128 -8 169 -14
163 -25 -2 -3 -70 -2 -150 3 l-146 9 0 121 c0 67 -3 138 -6 159 -5 24 -3 37 5
37 8 0 11 -45 11 -149z m-170 -1 c0 -117 0 -120 -22 -121 -13 -1 -67 -4 -121
-8 -78 -5 -97 -3 -97 8 0 28 65 134 103 166 35 30 110 73 130 75 4 0 7 -54 7
-120z m258 91 c55 -28 121 -98 148 -156 32 -68 31 -79 -7 -71 -17 3 -69 6
-115 6 l-84 0 0 120 c0 76 4 120 10 120 6 0 28 -9 48 -19z m-118 -7 c0 -8 -5
-12 -10 -9 -6 4 -8 11 -5 16 9 14 15 11 15 -7z m-17 -26 c15 -23 1 -48 -27
-48 -13 0 -26 -6 -29 -12 -3 -7 -4 4 -2 26 3 53 35 71 58 34z m11 -65 c-8 -3
-9 -15 -3 -41 11 -48 11 -54 -1 -47 -6 4 -8 10 -5 14 2 5 -6 6 -19 4 -17 -4
-28 1 -36 17 -14 25 1 50 31 50 10 0 21 5 24 11 4 6 10 7 14 3 3 -4 1 -9 -5
-11z m-34 -94 c31 -5 40 -43 13 -58 -28 -14 -45 2 -49 45 -1 21 0 33 4 27 4
-6 18 -13 32 -14z m-1280 -9 c0 -5 -6 -10 -14 -10 -8 0 -17 -4 -20 -9 -4 -5
13 -7 36 -5 42 4 42 4 11 -6 -47 -15 -41 -20 16 -13 31 3 51 1 55 -6 5 -7 -1
-11 -15 -11 -12 0 -56 -15 -98 -34 -42 -19 -93 -37 -114 -40 l-38 -7 51 65
c29 37 59 70 68 76 22 12 62 13 62 0z m2611 -13 c14 -12 45 -46 69 -75 l43
-53 -39 6 c-21 4 -73 22 -115 41 -42 19 -86 34 -98 34 -14 0 -20 4 -15 11 4 7
24 9 55 6 56 -7 63 -2 17 12 l-33 9 28 1 c16 1 38 -4 50 -10 21 -10 21 -10 3
5 -11 9 -23 16 -28 16 -4 0 -8 5 -8 10 0 18 45 10 71 -13z m-1286 -65 c-8 -8
-25 10 -19 20 4 6 9 5 15 -3 4 -7 6 -15 4 -17z m-1182 -3 c57 -26 55 -71 -9
-226 -57 -137 -44 -197 54 -248 57 -29 35 -33 -25 -4 -97 47 -111 121 -49 264
47 108 55 155 31 178 -26 26 -80 20 -166 -18 -43 -20 -115 -42 -161 -50 -111
-20 -144 -32 -168 -62 -32 -41 -26 -71 26 -118 35 -33 47 -51 51 -82 8 -60
-14 -77 -89 -68 -43 5 -63 3 -75 -6 -15 -13 -15 -12 -4 9 12 22 16 23 75 17
60 -7 63 -6 69 16 11 41 8 47 -44 105 -46 51 -51 60 -46 92 12 69 55 95 192
117 58 10 118 26 148 42 104 52 147 62 190 42z m1007 1 c0 -5 -4 -10 -9 -10
-5 0 -11 -12 -13 -27 -3 -32 -37 -43 -57 -19 -20 24 4 59 35 52 14 -4 24 -2
24 4 0 5 5 10 10 10 6 0 10 -4 10 -10z m154 -12 c8 -13 7 -21 -4 -32 -19 -18
-86 -33 -76 -17 4 6 11 9 15 6 5 -2 6 7 3 21 -8 43 39 59 62 22z m89 -24 c-1
-10 4 -22 10 -26 6 -4 8 -10 4 -15 -5 -4 -11 -2 -15 4 -4 6 -18 13 -32 14 -28
4 -38 32 -19 55 10 13 15 13 33 0 12 -8 20 -22 19 -32z m27 42 c0 -3 -4 -8
-10 -11 -5 -3 -10 -1 -10 4 0 6 5 11 10 11 6 0 10 -2 10 -4z m1146 -40 c51
-24 106 -41 171 -51 113 -18 153 -35 176 -74 28 -48 22 -85 -22 -128 -52 -52
-63 -75 -51 -108 10 -26 12 -27 66 -20 54 6 84 -3 84 -27 0 -6 -6 -6 -14 1
-10 8 -34 10 -74 5 -57 -6 -61 -5 -77 19 -24 38 -11 80 41 131 51 51 58 90 22
123 -37 33 -59 41 -157 57 -62 10 -118 27 -168 50 -92 44 -145 48 -168 12 -19
-29 -15 -48 38 -180 31 -78 38 -108 34 -139 -9 -66 -60 -117 -132 -132 -25 -5
-22 -2 17 19 101 55 111 110 48 267 -49 121 -52 168 -12 199 36 29 80 23 178
-24z m-1596 21 c-9 -7 -14 -21 -12 -31 6 -27 -25 -48 -49 -35 -36 19 -10 76
28 62 6 -2 14 1 18 6 3 6 12 11 18 11 8 -1 6 -5 -3 -13z m90 2 c0 -5 -5 -7
-12 -3 -8 5 -9 2 -5 -10 10 -26 -11 -58 -36 -54 -17 2 -22 10 -22 33 0 25 5
31 30 36 45 10 45 10 45 -2z m501 -4 c14 -9 11 -41 -7 -56 -22 -18 -49 1 -49
33 0 14 -5 25 -12 25 -7 0 -13 -11 -13 -24 0 -27 -25 -41 -48 -26 -48 30 -11
63 64 57 31 -2 60 -6 65 -9z m29 5 c0 -5 -4 -10 -10 -10 -5 0 -10 5 -10 10 0
6 5 10 10 10 6 0 10 -4 10 -10z m54 -16 c20 -19 20 -29 0 -48 -19 -20 -54 -5
-54 24 0 15 21 37 37 40 1 0 9 -7 17 -16z m-1541 -54 l4 -35 1 38 c2 37 15 49
25 23 8 -20 -6 -71 -44 -161 -33 -80 -41 -133 -26 -190 l7 -30 -30 35 c-37 43
-40 92 -8 182 19 58 28 128 17 153 -2 6 1 11 6 12 6 2 16 -12 23 -30 12 -32
12 -32 7 13 -4 29 -3 42 4 35 5 -5 11 -26 14 -45z m2336 -3 c0 17 6 35 12 38
7 5 8 -5 4 -32 -5 -28 -4 -34 4 -23 6 8 11 23 11 33 0 9 6 17 14 17 12 0 13
-7 6 -31 -10 -34 -2 -82 25 -158 8 -24 15 -63 15 -87 0 -37 -6 -51 -35 -82
l-34 -37 15 45 c19 54 13 88 -32 197 -36 88 -44 130 -28 153 7 11 11 5 15 -25
6 -37 6 -37 8 -8z m-1114 23 c3 -5 -1 -10 -10 -10 -9 0 -13 5 -10 10 3 6 8 10
10 10 2 0 7 -4 10 -10z m-170 -10 c3 -5 -1 -10 -10 -10 -9 0 -13 5 -10 10 3 6
8 10 10 10 2 0 7 -4 10 -10z m-175 -10 c0 -5 -4 -10 -10 -10 -5 0 -10 5 -10
10 0 6 5 10 10 10 6 0 10 -4 10 -10z m605 0 c3 -5 -1 -10 -10 -10 -9 0 -13 5
-10 10 3 6 8 10 10 10 2 0 7 -4 10 -10z m45 -26 c5 -5 -140 -9 -355 -9 -201 0
-365 3 -365 7 0 12 121 16 423 13 158 -1 292 -6 297 -11z m-1817 -51 c-18 -63
-9 -116 27 -173 47 -74 47 -120 -4 -218 -26 -50 -37 -82 -34 -101 5 -37 -16
-31 -37 10 -21 39 -19 54 16 126 19 39 28 70 24 83 -9 27 -18 25 -33 -8 -19
-43 -54 -55 -118 -41 -42 10 -56 9 -69 -1 -17 -14 -21 0 -4 17 8 8 33 10 74 6
57 -5 63 -4 79 18 9 13 16 43 16 66 0 37 -6 50 -50 98 -55 61 -59 74 -31 99
18 16 18 15 15 -11 -4 -27 -4 -27 11 5 20 42 25 41 20 -5 l-5 -38 9 33 c11 42
36 70 28 32 -3 -14 -1 -34 3 -45 7 -17 9 -16 9 10 1 17 6 37 12 45 7 11 8 4 4
-25 l-5 -40 16 43 c17 47 39 59 27 15z m1759 10 l28 -8 -21 -42 c-27 -54 -87
-108 -158 -142 -77 -36 -209 -37 -289 -2 -54 24 -139 106 -167 162 l-15 28 43
5 c23 4 62 8 87 10 71 6 462 -3 492 -11z m1178 -23 c13 -50 25 -53 15 -4 -4
24 -3 34 4 29 6 -3 11 -15 11 -25 0 -10 5 -22 12 -26 8 -5 9 2 4 27 -8 44 12
25 25 -23 8 -32 9 -32 4 7 -4 37 -3 38 10 21 8 -11 16 -29 16 -40 1 -12 5 -5
8 14 6 34 7 35 19 12 18 -31 8 -56 -40 -102 -49 -47 -63 -111 -33 -156 16 -25
20 -26 80 -21 41 4 66 2 74 -6 17 -17 13 -31 -5 -16 -12 10 -24 10 -65 0 -62
-16 -102 -3 -121 40 -15 35 -24 37 -32 7 -3 -15 6 -45 24 -84 34 -69 36 -84
15 -123 -21 -41 -42 -47 -37 -10 3 19 -9 55 -38 113 -50 100 -50 128 1 208 33
52 43 112 26 171 -4 16 -3 27 2 27 6 0 15 -18 21 -40z m-3293 -425 c47 -71
107 -157 132 -190 64 -81 62 -76 47 -124 l-12 -43 -40 48 c-22 27 -86 108
-142 181 -56 72 -107 135 -113 138 -19 12 49 -111 121 -219 39 -58 96 -133
126 -165 30 -32 54 -65 54 -72 0 -8 9 -33 20 -57 l20 -43 -38 29 c-61 49 -224
222 -285 303 -128 170 -188 308 -189 435 0 75 14 116 54 156 l20 20 70 -133
c38 -73 107 -192 155 -264z m3875 378 c36 -42 51 -88 50 -158 -2 -174 -115
-372 -352 -618 -57 -60 -117 -118 -132 -128 l-28 -20 20 46 c11 26 20 51 20
57 0 5 25 38 56 71 31 34 87 109 125 166 75 111 142 234 116 213 -8 -7 -75
-89 -148 -183 -72 -93 -135 -172 -139 -174 -4 -3 -13 15 -20 39 l-12 44 59 79
c110 144 262 387 329 526 16 31 31 57 35 57 3 0 13 -8 21 -17z m-2277 -102 c3
-5 -11 -23 -30 -39 -63 -51 -308 -172 -290 -142 3 6 12 10 19 10 18 0 192 105
239 145 45 37 53 40 62 26z m575 -86 c25 -16 79 -46 120 -68 109 -56 44 -36
-85 28 -120 59 -183 104 -171 124 6 8 20 2 49 -22 23 -19 62 -47 87 -62z
m-532 56 c11 -6 7 -13 -15 -29 -58 -41 -239 -123 -271 -122 -4 0 27 17 69 38
41 21 102 57 135 80 65 46 63 45 82 33z m548 -106 c48 -25 83 -45 76 -45 -20
0 -159 58 -217 91 -62 35 -74 48 -54 59 8 6 30 -3 60 -26 26 -19 87 -55 135
-79z m-685 -108 c-84 -56 -279 -81 -418 -53 -91 18 -149 21 -158 6 -3 -5 0
-10 8 -10 7 0 19 -11 25 -25 6 -14 16 -25 22 -25 5 0 10 -4 10 -10 0 -5 -8
-10 -17 -10 -12 0 -14 -3 -7 -10 7 -7 28 -3 65 14 91 43 141 49 315 41 154 -7
157 -8 129 -24 -22 -12 -56 -16 -127 -16 -53 0 -94 -3 -91 -7 2 -5 24 -8 49
-8 25 0 54 -4 64 -10 20 -10 120 -154 120 -172 0 -6 -7 -5 -17 3 -10 7 -2 -3
18 -22 22 -20 43 -55 53 -86 17 -53 32 -74 22 -30 -3 12 12 -15 35 -60 22 -45
43 -100 46 -122 3 -22 8 -39 12 -37 3 2 3 -64 0 -147 -4 -85 -3 -156 2 -162 5
-5 9 17 10 55 1 76 5 69 23 -31 11 -68 11 -79 -8 -131 -35 -101 -56 -71 -57
83 l-1 92 -22 -64 c-37 -105 -45 -114 -46 -49 -1 30 -5 75 -9 100 -6 40 -8 36
-12 -45 -6 -101 -36 -175 -72 -175 -12 0 -17 5 -14 14 3 8 8 32 11 53 5 33 3
31 -12 -14 -14 -44 -21 -53 -40 -53 -20 0 -21 2 -11 21 30 57 69 111 70 98 1
-7 7 18 14 56 l13 70 1 -55 c2 -46 4 -51 12 -31 6 16 4 61 -6 138 -25 193 -50
257 -50 129 0 -56 -7 -104 -23 -155 -13 -40 -25 -71 -27 -69 -3 2 1 45 7 96
14 111 0 247 -32 318 -11 26 -18 49 -15 52 3 3 25 -13 48 -36 24 -24 47 -39
52 -35 4 5 5 2 1 -4 -4 -7 0 -23 8 -35 9 -12 16 -17 16 -11 0 12 -38 135 -55
178 -7 18 -5 17 18 -4 14 -13 38 -41 53 -62 26 -38 27 -42 25 -182 -1 -78 -3
-169 -6 -202 -3 -44 -2 -52 4 -30 5 17 10 75 11 130 l2 100 18 -65 c19 -67 25
-57 11 18 -10 49 -4 55 11 11 6 -16 12 -28 15 -26 2 3 -10 39 -27 81 -16 42
-30 82 -30 88 0 21 27 -13 60 -77 27 -50 31 -54 25 -25 -9 42 -37 125 -31 92
3 -13 3 -22 1 -20 -2 1 -24 32 -51 68 -26 36 -64 84 -85 107 -38 41 -42 51
-40 83 0 8 -2 10 -5 4 -2 -6 -37 21 -77 60 -40 39 -97 84 -127 100 l-55 29 51
-54 c57 -61 140 -179 125 -179 -11 0 -118 78 -190 139 -43 36 -51 41 -41 21 7
-14 27 -43 44 -64 l31 -40 -55 30 c-77 41 -168 135 -212 221 -21 39 -38 76
-38 83 0 9 76 11 329 9 318 -4 328 -5 302 -22z m1249 8 c0 -68 -147 -245 -248
-299 l-53 -28 35 47 c61 79 62 92 5 41 -61 -55 -190 -148 -197 -142 -6 7 70
116 124 175 43 48 45 52 19 38 -55 -28 -152 -105 -186 -146 -23 -30 -35 -38
-41 -29 -5 8 -8 2 -8 -17 0 -21 -12 -43 -42 -75 -38 -40 -39 -41 -5 -10 20 18
37 30 37 24 1 -5 12 12 25 37 34 65 175 202 175 170 0 -5 -4 -12 -9 -16 -13
-7 -97 -127 -117 -166 l-15 -31 63 43 c35 23 83 58 107 76 45 34 65 37 40 7
-19 -24 -165 -143 -217 -178 -24 -17 -54 -44 -68 -60 -29 -38 -29 -35 -4 39
11 32 18 60 16 62 -4 4 -56 -145 -56 -160 0 -4 28 22 61 58 66 70 93 85 60 32
-45 -73 -64 -252 -41 -391 5 -33 8 -62 6 -64 -3 -2 -12 21 -22 52 -10 31 -19
54 -22 52 -8 -9 31 -112 60 -158 35 -56 78 -94 133 -119 l40 -19 -77 0 -78 0
-35 48 c-54 73 -77 144 -81 242 -2 62 0 74 5 45 6 -30 9 -34 10 -15 13 141 15
188 9 184 -10 -7 -37 -133 -45 -215 -7 -70 -7 -72 -14 -34 -5 22 -8 112 -8
200 -1 120 3 167 13 188 22 41 12 33 -30 -25 -47 -67 -57 -77 -50 -58 64 202
70 216 105 249 20 19 27 28 17 20 -18 -13 -19 -12 -13 5 14 37 99 156 119 167
10 6 37 9 59 8 21 -2 43 1 48 6 7 7 -23 10 -82 10 -59 0 -103 5 -122 15 -29
14 -28 14 55 21 175 14 246 11 328 -17 42 -14 82 -30 89 -36 7 -5 17 -7 23 -3
16 10 51 85 45 95 -9 15 -70 12 -155 -6 -136 -29 -329 -4 -422 54 -25 16 -9
17 303 21 306 3 329 2 329 -14z m-1864 -86 c56 -105 106 -155 239 -234 65 -38
139 -90 166 -115 56 -53 95 -131 104 -210 l7 -55 -41 80 c-59 119 -121 190
-227 260 -116 77 -149 105 -216 185 -78 93 -101 129 -94 145 10 28 25 15 62
-56z m1912 49 c2 -9 -33 -61 -78 -116 -78 -98 -123 -137 -260 -225 -78 -51
-145 -132 -199 -241 -43 -86 -51 -79 -25 19 31 121 83 175 275 288 112 65 175
129 225 230 33 65 55 81 62 45z m-2983 -239 c172 -159 295 -265 372 -322 24
-17 42 -32 40 -33 -2 -2 -30 2 -63 9 -47 9 -78 25 -149 78 -88 64 -195 138
-225 154 -34 18 72 -83 175 -168 62 -50 113 -100 117 -113 3 -13 5 -24 3 -24
-2 0 -61 34 -131 76 -243 147 -341 236 -383 349 -23 60 -27 147 -11 190 l10
27 38 -33 c20 -18 114 -103 207 -190z m4249 199 c3 -13 6 -53 6 -89 0 -56 -5
-77 -35 -137 -41 -82 -105 -145 -234 -231 -92 -61 -255 -161 -264 -161 -3 0
-2 11 1 24 4 13 55 63 117 113 102 85 209 186 175 168 -31 -17 -168 -111 -240
-164 -58 -43 -89 -59 -134 -68 -33 -7 -61 -12 -62 -10 -1 1 41 37 94 79 54 43
144 121 202 174 231 214 354 324 361 324 4 0 9 -10 13 -22z m-3224 -42 c59
-78 184 -194 263 -246 37 -25 63 -46 57 -48 -5 -2 -31 10 -58 27 -210 135
-321 161 -416 96 -31 -21 -36 -22 -47 -8 -7 8 -15 43 -17 77 -3 52 -1 65 19
90 25 32 91 65 130 66 20 0 36 -13 69 -54z m224 45 c3 -5 -1 -12 -10 -15 -22
-9 -24 -8 -24 9 0 16 25 21 34 6z m1526 -7 c0 -11 -5 -14 -16 -10 -9 3 -18 6
-20 6 -3 0 -2 5 1 10 10 16 35 12 35 -6z m80 -24 c-12 -28 -40 -42 -40 -20 0
6 5 10 10 10 6 0 16 11 22 25 16 35 23 22 8 -15z m246 21 c23 -10 51 -33 64
-50 19 -27 22 -42 18 -92 -6 -80 -17 -89 -70 -58 -35 19 -57 24 -113 24 -82
-1 -144 -26 -267 -106 -42 -28 -82 -49 -88 -47 -6 2 20 23 57 48 79 52 204
168 263 246 48 61 67 66 136 35z m-1932 -7 c5 -14 4 -15 -9 -4 -17 14 -19 20
-6 20 5 0 12 -7 15 -16z m1657 -7 c-10 -9 -11 -8 -5 6 3 10 9 15 12 12 3 -3 0
-11 -7 -18z m-1190 -73 c26 -29 133 -84 162 -84 10 0 16 -4 13 -8 -6 -9 -77 0
-111 13 -36 15 -104 65 -115 85 -17 31 21 26 51 -6z m769 6 c-22 -41 -126 -98
-185 -101 -54 -2 -51 1 18 25 46 15 81 35 105 60 41 40 81 51 62 16z m-907
-110 c63 -59 80 -82 105 -143 16 -39 33 -87 37 -105 l7 -34 -43 41 c-23 23
-48 40 -56 37 -7 -3 -12 -2 -10 3 1 4 -39 42 -89 84 -51 42 -102 91 -115 109
-23 32 -22 32 36 -13 33 -25 89 -65 124 -89 l64 -43 -23 42 c-13 22 -47 72
-76 111 -29 38 -49 70 -45 70 5 0 43 -32 84 -70z m201 12 c6 -5 22 -13 36 -17
14 -4 31 -15 37 -24 29 -37 103 -170 126 -226 44 -107 41 -111 -20 -30 -34 44
-71 89 -83 100 -13 11 8 -20 47 -70 120 -154 144 -216 142 -364 -1 -73 1 -75
-44 74 -29 98 -75 202 -132 305 -21 36 -37 70 -38 75 0 6 -16 31 -36 55 -35
43 -89 125 -89 134 0 7 41 -2 54 -12z m646 11 c0 -12 -63 -101 -124 -173 -90
-106 -160 -199 -155 -205 2 -2 33 35 68 81 35 47 65 83 67 81 3 -2 -20 -51
-50 -108 -53 -101 -126 -295 -126 -337 0 -12 -4 -24 -10 -27 -24 -15 0 206 28
260 9 17 17 44 17 60 2 35 76 193 127 273 26 40 46 59 84 76 45 21 74 28 74
19z m-2001 -173 c1 -16 -19 5 -96 105 -46 60 -46 60 25 -15 39 -41 71 -82 71
-90z m3419 132 c-52 -72 -113 -142 -116 -133 -2 6 25 42 60 81 64 70 80 85 56
52z m-158 -132 c0 -98 -36 -167 -137 -259 -78 -70 -123 -106 -123 -98 0 22 31
82 66 127 23 30 50 71 59 90 l17 35 -41 -40 c-23 -22 -39 -45 -37 -52 3 -7 0
-15 -6 -19 -7 -5 -8 -2 -3 6 5 8 4 11 -3 6 -6 -4 -9 -13 -6 -20 3 -7 -2 -19
-11 -26 -9 -8 -15 -8 -15 -2 0 6 4 13 9 16 6 4 5 20 0 41 -10 35 -9 37 64 116
41 44 89 108 108 142 l33 62 12 -30 c7 -17 13 -59 14 -95z m-3150 48 c19 -34
65 -93 103 -131 56 -58 67 -76 67 -103 0 -20 -5 -34 -12 -34 -9 0 -9 -3 0 -12
17 -17 15 -33 -3 -18 -9 7 -13 20 -10 29 3 11 -13 34 -46 66 l-51 50 20 -40
c11 -22 38 -60 60 -85 33 -38 69 -116 58 -127 -1 -2 -45 34 -97 80 -115 100
-159 174 -159 267 0 56 15 120 28 120 4 0 23 -28 42 -62z m652 27 c-61 -13
-105 -35 -181 -90 -46 -34 -124 -35 -171 -2 -50 33 -50 47 0 34 45 -12 92 -3
225 47 48 17 89 25 130 25 l60 -1 -63 -13z m1903 -11 c132 -49 180 -59 224
-48 37 10 39 10 30 -7 -15 -29 -63 -49 -117 -49 -41 0 -59 6 -98 35 -74 53
-99 64 -167 79 l-62 14 60 1 c41 0 82 -7 130 -25z m-1853 -39 c-66 -16 -96
-36 -113 -74 -7 -16 -17 -27 -21 -25 -29 18 26 88 80 102 20 5 53 10 72 10 31
0 29 -2 -18 -13z m1761 -16 c21 -11 42 -31 48 -46 14 -38 -5 -51 -21 -14 -15
37 -49 60 -114 77 l-51 13 50 -5 c27 -3 67 -15 88 -25z m-3078 -67 c52 -18
138 -63 247 -130 160 -99 207 -135 249 -194 l20 -27 -24 2 c-12 1 -110 47
-217 101 -107 55 -189 92 -182 84 19 -23 146 -109 227 -153 39 -21 72 -40 75
-42 3 -3 -6 -13 -20 -23 -23 -18 -25 -17 -100 10 -232 85 -379 189 -431 304
-10 23 -19 53 -19 69 0 26 2 27 48 27 26 0 83 -13 127 -28z m4485 1 c0 -16 -9
-46 -19 -69 -52 -115 -208 -224 -437 -307 l-70 -25 -24 20 c-14 11 -20 21 -14
24 64 27 318 193 309 202 -4 4 -264 -125 -333 -166 -24 -13 -57 -26 -73 -28
-25 -3 -28 -1 -20 14 26 47 113 116 262 207 175 107 289 154 372 155 45 0 47
-1 47 -27z m-2120 -94 c-37 -128 -37 -138 -2 -73 65 116 82 118 37 4 -28 -73
-31 -86 -9 -50 11 19 14 20 10 5 -3 -11 -7 -42 -10 -70 -6 -49 -5 -49 11 15
l17 65 7 -120 c6 -112 20 -199 33 -212 3 -4 6 14 7 38 1 38 3 34 14 -31 7 -41
17 -92 23 -113 10 -36 10 -38 -11 -35 -34 5 -66 95 -68 193 -1 73 -2 76 -10
35 -4 -25 -8 -72 -9 -105 -1 -57 -1 -59 -15 -35 -23 39 -55 148 -56 189 l-1
36 -9 -30 c-5 -19 -5 -41 3 -61 14 -40 1 -224 -16 -224 -7 0 -21 26 -32 58
-20 56 -20 59 -4 142 l18 85 1 -58 c0 -32 5 -56 9 -53 5 3 7 61 4 128 -5 149
9 243 49 328 16 35 32 61 34 58 3 -2 -9 -51 -25 -109z m-1965 -13 c17 -14 24
-25 17 -26 -14 0 -126 82 -137 101 -9 13 81 -43 120 -75z m3620 64 c-13 -21
-124 -100 -129 -91 -3 5 24 29 61 55 70 48 78 52 68 36z m-3041 -184 c184
-184 218 -230 224 -302 4 -50 3 -53 -46 -106 -79 -88 -89 -154 -35 -227 35
-45 133 -91 197 -91 60 0 129 31 158 71 15 20 30 29 50 29 26 0 28 -3 28 -43
0 -24 -5 -48 -10 -53 -8 -8 -8 -19 0 -38 5 -15 10 -45 10 -68 0 -34 -3 -39
-17 -34 -15 5 -15 4 1 -9 11 -8 17 -18 13 -21 -14 -14 -37 20 -53 77 -9 33
-21 62 -25 65 -13 8 -11 -2 13 -78 l22 -68 -33 -34 c-31 -32 -35 -33 -69 -24
-50 14 -61 24 -67 64 -17 109 -19 112 -25 35 -5 -72 -6 -76 -39 -95 -33 -19
-34 -19 -67 -1 -43 23 -50 51 -29 115 24 73 11 74 -15 1 -29 -77 -38 -85 -95
-77 -33 5 -50 14 -65 36 -28 40 -25 62 15 110 51 61 43 70 -15 16 -55 -52 -85
-58 -145 -29 -30 14 -35 22 -35 50 0 70 47 113 122 113 9 0 20 5 23 10 4 6
-20 10 -65 10 -68 0 -74 2 -101 31 -35 38 -46 74 -28 95 19 23 65 44 96 44 26
-1 25 -2 -11 -15 -22 -7 -48 -22 -59 -33 -18 -18 -18 -21 -3 -50 9 -17 26 -37
38 -43 l21 -11 -21 29 c-35 49 -32 63 18 90 44 24 64 25 130 7 49 -13 9 10
-46 27 -97 30 -152 81 -161 148 -5 36 -3 39 27 50 72 25 132 7 204 -60 25 -23
46 -37 46 -32 0 12 -60 75 -146 153 -67 61 -92 106 -101 179 -5 46 3 141 13
141 2 0 73 -69 158 -154z m2521 99 c14 -108 -16 -186 -101 -265 -100 -94 -144
-140 -144 -151 0 -7 21 7 46 30 70 65 135 85 199 61 52 -20 45 -73 -18 -136
-30 -30 -59 -47 -102 -60 -59 -17 -107 -44 -55 -30 67 18 86 17 129 -6 25 -13
46 -29 48 -34 2 -6 -8 -28 -23 -49 -24 -35 -24 -37 -4 -24 12 8 29 26 38 41
15 26 15 28 -7 52 -13 13 -39 29 -60 34 -35 10 -36 10 -6 11 33 1 92 -31 101
-54 9 -22 -15 -72 -44 -95 -19 -16 -40 -20 -93 -20 -39 0 -69 -4 -69 -10 0 -5
12 -10 28 -10 39 0 95 -31 109 -60 7 -14 13 -39 13 -56 0 -28 -5 -34 -40 -48
-66 -26 -89 -21 -142 31 -56 55 -64 44 -13 -17 41 -49 42 -61 15 -106 -17 -27
-29 -34 -66 -40 -56 -8 -68 1 -96 79 -26 71 -36 61 -14 -13 17 -59 12 -77 -30
-105 -25 -16 -28 -16 -65 0 -46 21 -52 34 -43 102 4 36 3 53 -5 53 -6 0 -11
-17 -12 -37 -1 -42 -11 -85 -19 -82 -3 1 -22 -1 -44 -5 -34 -6 -42 -4 -67 20
-16 15 -29 23 -29 18 0 -6 13 -23 29 -38 27 -26 29 -27 70 -12 28 9 41 10 38
3 -2 -6 -22 -17 -44 -23 -39 -11 -43 -10 -74 16 l-34 28 18 63 c10 35 21 73
24 83 4 13 2 17 -5 12 -6 -4 -19 -34 -28 -67 -10 -35 -24 -64 -35 -70 -13 -6
-19 -6 -19 1 0 5 6 10 13 10 9 0 9 2 -1 9 -9 5 -12 27 -10 69 1 33 6 58 10 56
5 -3 8 -1 8 5 0 5 -4 13 -10 16 -5 3 -10 26 -10 51 0 42 2 44 28 44 20 0 35
-9 51 -31 111 -150 429 -27 382 149 -7 23 -31 62 -56 90 -24 27 -49 62 -55 77
-14 36 1 90 42 146 33 45 328 348 340 349 4 0 10 -25 13 -55z m-2944 -51 c61
-19 123 -60 242 -158 87 -72 95 -81 73 -84 -14 -2 -37 5 -53 15 -17 12 -24 13
-19 4 6 -9 5 -12 -5 -9 -8 3 -14 10 -14 17 0 7 -34 31 -75 53 -70 37 -73 38
-44 11 16 -15 54 -44 83 -64 l54 -37 -26 -16 c-24 -17 -28 -16 -125 33 -124
62 -178 124 -197 224 l-7 37 33 -6 c19 -3 55 -12 80 -20z m3294 -42 c-26 -87
-68 -130 -182 -190 -91 -46 -105 -51 -127 -40 -14 6 -26 14 -26 18 0 4 19 20
43 35 62 41 119 87 113 92 -8 8 -146 -78 -143 -89 1 -6 -4 -13 -12 -16 -9 -3
-11 0 -6 8 5 9 4 11 -4 6 -6 -4 -9 -11 -7 -15 3 -4 -16 -9 -42 -10 -28 -1 -43
2 -37 8 38 35 177 148 212 173 77 52 204 97 226 78 4 -3 0 -29 -8 -58z m-1556
-49 c-4 -43 -14 -105 -23 -138 -8 -33 -20 -98 -24 -145 l-9 -85 -26 58 c-15
32 -27 70 -27 85 0 15 18 81 40 147 29 88 39 108 35 75 l-5 -45 14 48 c29 100
33 100 25 0z m-244 -3 c-3 34 5 18 35 -70 21 -63 39 -131 39 -150 1 -19 -11
-60 -26 -90 l-27 -55 -8 85 c-4 47 -17 120 -28 162 -11 43 -20 101 -19 130 l1
53 19 -55 19 -55 -5 45z m-1624 -78 c-18 -3 -191 91 -191 104 0 2 48 -20 106
-49 71 -35 99 -53 85 -55z m3625 89 c-12 -18 -146 -91 -168 -90 -15 0 10 17
72 49 105 54 103 53 96 41z m-4081 -15 c33 -8 130 -44 216 -81 144 -60 157
-68 173 -101 13 -29 14 -35 3 -31 -37 14 -295 95 -322 101 -28 5 -27 4 9 -15
43 -23 225 -94 328 -128 88 -29 100 -44 49 -61 -34 -11 -52 -9 -157 15 -209
48 -325 98 -412 179 -40 37 -82 101 -82 126 0 15 124 12 195 -4z m4565 3 c0
-28 -37 -84 -87 -129 -79 -72 -190 -122 -371 -166 -141 -34 -155 -36 -193 -24
-55 19 -40 30 101 79 149 51 297 114 282 119 -13 4 -239 -62 -315 -93 -17 -7
-17 -6 -1 28 16 33 30 42 170 102 84 36 179 72 211 79 71 18 203 21 203 5z
m-2709 -69 c6 33 7 22 4 -40 -3 -99 -26 -166 -80 -240 l-37 -50 -71 0 -71 0
54 33 c30 17 71 54 91 81 37 49 87 179 91 233 1 17 3 10 7 -17 l5 -45 7 45z
m-86 -52 c-4 -18 -18 -53 -32 -78 l-24 -45 25 30 c29 34 32 29 12 -20 -8 -18
-23 -38 -34 -44 -43 -23 -144 -7 -156 24 -3 9 9 12 44 12 62 -1 109 33 142
102 13 28 24 50 26 51 2 0 1 -15 -3 -32z m-1089 -39 c92 -43 105 -52 102 -72
-3 -23 8 -40 54 -89 l27 -29 -32 5 c-242 39 -320 63 -370 111 -41 40 -62 89
-44 103 22 18 82 31 120 25 21 -3 86 -27 143 -54z m2005 -60 c23 -16 46 -23
80 -22 34 0 46 -3 43 -12 -12 -31 -113 -47 -156 -24 -11 6 -26 26 -34 44 -19
46 -17 55 6 26 26 -30 25 -26 -5 33 -35 69 -31 92 5 29 16 -28 44 -61 61 -74z
m904 111 c-3 -5 -12 -10 -18 -10 -7 0 -6 4 3 10 19 12 23 12 15 0z m349 -11
c32 -15 33 -36 3 -80 -29 -43 -77 -75 -141 -94 -53 -16 -277 -57 -283 -52 -1
2 11 16 27 32 17 16 30 35 30 42 0 7 4 13 9 13 5 0 7 8 5 18 -2 9 -1 22 3 27
7 9 177 92 223 109 21 8 92 -1 124 -15z m145 -83 c-2 -2 -38 -16 -79 -30 -49
-18 -70 -22 -60 -12 8 8 38 21 65 30 48 14 83 20 74 12z m-2089 -121 l0 -75
-31 0 c-29 0 -31 2 -24 28 8 32 46 122 51 122 2 0 4 -34 4 -75z m180 0 l0 -75
-31 0 c-25 0 -30 3 -25 18 26 68 51 132 53 132 2 0 3 -34 3 -75z m80 -66 c0
-5 -13 -9 -30 -9 l-30 0 0 78 1 77 29 -68 c17 -38 30 -73 30 -78z m175 19 c7
-26 5 -28 -24 -28 l-31 0 1 78 1 77 23 -50 c13 -27 27 -62 30 -77z m-2182 54
c112 -24 164 -39 157 -46 -5 -5 -10 -19 -10 -29 0 -17 -5 -19 -41 -13 -77 12
-251 28 -256 23 -7 -8 52 -23 194 -48 92 -17 137 -30 159 -46 17 -13 36 -23
42 -23 7 0 12 -4 12 -9 0 -11 -307 -4 -405 10 -92 12 -202 66 -249 121 -20 23
-36 47 -36 54 0 20 35 35 103 43 87 11 138 5 330 -37z m2339 -49 l20 -33 -24
0 c-21 0 -26 7 -36 48 -6 26 -14 56 -17 67 -7 19 10 -5 57 -82z m1927 72 c19
-6 36 -16 38 -21 6 -19 -42 -79 -89 -110 -91 -62 -151 -75 -383 -84 -115 -5
-211 -7 -212 -6 -2 1 16 16 40 32 34 24 67 34 170 53 143 26 201 40 194 48 -5
5 -175 -10 -259 -23 -23 -4 -40 -3 -36 1 4 4 3 16 -3 27 -6 11 -9 21 -7 23 8
8 279 67 338 74 75 9 160 3 209 -14z m-2593 -81 c-4 -13 -13 -24 -22 -24 -9 0
-13 6 -10 13 2 6 11 30 18 52 13 39 13 39 16 11 2 -15 1 -39 -2 -52z m564 -21
c0 -2 -6 -3 -14 -3 -15 0 -26 31 -25 75 0 27 2 25 19 -20 11 -27 20 -51 20
-52z m-1788 52 c68 -14 127 -25 133 -25 5 -1 -1 -10 -14 -20 -19 -17 -39 -20
-120 -21 l-96 -1 50 -14 c28 -7 62 -14 77 -14 27 0 58 -23 58 -41 0 -7 -50 -9
-139 -7 -139 3 -139 3 -178 34 -47 38 -52 58 -22 90 46 49 89 52 251 19z
m1388 -15 c0 -30 -4 -40 -16 -40 -11 0 -14 5 -10 16 3 9 9 27 12 40 9 35 14
29 14 -16z m1781 30 c19 -6 46 -21 59 -36 23 -23 23 -27 10 -51 -8 -15 -35
-37 -59 -50 -39 -20 -58 -23 -168 -23 -69 0 -123 4 -123 9 0 19 32 41 58 41
15 0 50 7 77 14 l50 14 -96 1 c-79 1 -101 4 -120 20 l-24 19 40 7 c22 4 78 15
125 25 102 22 124 23 171 10z m-1563 -37 c9 -27 8 -33 -4 -33 -10 0 -14 11
-14 37 0 42 3 41 18 -4z m652 -64 c0 -64 -65 -119 -140 -119 l-30 0 0 74 0 74
43 -5 c28 -3 53 2 77 14 41 21 50 14 50 -38z m-1485 35 c25 -10 50 -13 76 -9
l39 7 0 -76 0 -76 -30 0 c-79 0 -140 55 -140 126 0 49 2 50 55 28z m-1066 -30
c12 -11 -10 -11 -64 2 l-60 13 60 -5 c33 -3 62 -8 64 -10z m3646 5 c-22 -5
-50 -11 -62 -14 -13 -3 -23 -1 -23 4 0 10 39 17 95 18 25 1 23 -1 -10 -8z
m-3287 -6 c-10 -2 -28 -2 -40 0 -13 2 -5 4 17 4 22 1 32 -1 23 -4z m2890 0
c-10 -2 -28 -2 -40 0 -13 2 -5 4 17 4 22 1 32 -1 23 -4z m-2830 -107 c14 -13
14 -16 2 -17 -8 -1 1 -5 20 -10 30 -7 27 -7 -15 -4 -27 3 -75 -2 -105 -10
l-55 -14 102 3 102 4 -15 -24 c-18 -27 -22 -28 -139 -49 -121 -20 -173 -19
-212 5 -37 22 -41 39 -17 76 25 38 52 48 139 55 114 9 174 5 193 -15z m3013
-2 c29 -14 59 -55 59 -79 0 -25 -60 -55 -110 -55 -41 0 -201 24 -242 36 -9 3
-23 15 -32 28 l-15 24 107 -4 107 -4 -60 15 c-33 8 -82 12 -110 10 -43 -3 -45
-3 -15 4 19 5 29 9 22 10 -18 1 -5 20 22 31 30 12 236 0 267 -16z m-3384 0
l22 -6 -20 -28 c-19 -26 -26 -27 -122 -33 -56 -4 -124 -10 -152 -14 -81 -11
-21 -21 136 -22 108 -1 139 -4 149 -16 7 -8 20 -15 29 -15 14 -1 14 -2 1 -9
-31 -18 -259 -44 -385 -45 -123 -1 -132 0 -175 25 -25 15 -54 37 -65 49 l-20
22 35 29 c65 55 131 68 350 68 107 1 205 -2 217 -5z m3924 -14 c35 -10 80 -33
99 -50 l35 -30 -40 -35 c-78 -71 -178 -79 -470 -39 -108 15 -180 33 -134 34 9
0 22 7 29 15 10 12 40 15 144 16 72 1 145 4 161 8 l30 7 -40 7 c-22 4 -90 10
-152 13 -107 7 -112 8 -132 35 -15 20 -17 29 -8 32 6 3 103 6 213 6 174 1 211
-2 265 -19z m-3931 -70 c0 -6 -31 -9 -77 -8 -69 1 -73 2 -33 8 70 11 110 11
110 0z m3619 -6 c2 -2 -28 -4 -67 -4 -45 0 -72 4 -72 11 0 7 22 8 68 4 37 -4
69 -9 71 -11z m-3219 -39 c0 -8 -31 -29 -75 -49 -41 -19 -75 -37 -75 -40 0 -2
32 4 72 15 68 19 98 19 98 1 0 -5 -37 -30 -82 -55 -90 -51 -132 -58 -194 -32
-31 13 -34 17 -28 42 17 70 32 81 157 109 125 27 127 28 127 9z m1425 -10 c37
-37 35 -95 -6 -129 -17 -14 -27 -30 -24 -36 4 -6 -7 -10 -27 -10 l-33 0 1 53
c1 75 2 77 29 77 14 0 25 -6 25 -12 0 -9 4 -8 11 2 8 12 9 11 5 -5 -3 -11 -8
-33 -11 -50 l-6 -30 19 22 c22 25 20 56 -6 86 -43 49 -115 -15 -92 -81 l10
-27 -20 24 c-29 34 -26 77 9 112 38 37 82 39 116 4z m164 0 c57 -48 64 -96 66
-410 0 -189 5 -296 13 -329 10 -37 10 -51 1 -56 -7 -5 -9 -19 -4 -39 4 -18 3
-31 -3 -31 -12 0 -63 66 -56 73 3 3 -2 22 -11 43 -15 36 -27 103 -40 227 -6
57 -7 58 -25 42 -13 -12 -30 -16 -50 -13 l-32 5 7 -69 c7 -64 6 -68 -13 -68
-18 0 -19 -4 -11 -39 5 -22 8 -86 7 -143 -2 -103 5 -132 36 -158 22 -17 20
-30 -3 -30 -30 0 -83 58 -72 78 6 10 6 23 0 34 -6 10 -7 23 -4 28 3 5 1 11 -5
15 -5 3 -10 17 -10 31 0 18 4 23 13 18 9 -6 9 -4 1 7 -6 8 -14 31 -18 52 -6
34 -5 37 16 38 17 1 18 3 6 6 -26 7 -22 33 5 34 l22 2 -22 4 c-22 4 -23 10
-25 96 l-2 92 -5 -90 c-5 -81 -8 -90 -26 -90 -15 0 -22 9 -26 35 -5 29 -6 26
-8 -22 -1 -45 -5 -57 -18 -61 -14 -4 -12 -5 5 -6 18 -1 22 -7 24 -38 0 -21 0
-45 0 -53 -1 -8 -4 -40 -7 -70 -4 -36 -12 -60 -23 -68 -16 -13 -16 -13 2 -10
35 6 27 -19 -16 -51 -39 -29 -68 -39 -68 -25 0 4 14 22 30 41 23 25 29 40 24
58 -5 21 -2 25 17 26 23 2 23 2 2 6 -19 4 -21 11 -22 63 0 33 5 62 10 66 6 4
6 11 -2 20 -6 8 -9 23 -6 33 3 13 -1 21 -14 24 -11 3 -19 14 -19 27 0 11 4 19
9 15 6 -3 8 8 4 28 -7 45 13 168 29 179 10 6 10 8 1 8 -24 0 0 30 26 31 l26 2
-27 4 c-24 4 -28 9 -28 38 0 18 6 35 12 37 7 3 2 7 -10 10 -16 5 -22 2 -22
-11 0 -10 -28 -38 -66 -65 -56 -40 -68 -45 -81 -34 -15 12 -15 10 -4 -11 11
-19 11 -23 -1 -19 -7 3 -14 14 -16 26 -2 16 3 23 21 27 13 4 42 25 63 48 28
30 31 35 9 17 -16 -14 -32 -28 -35 -31 -3 -3 -19 -11 -37 -18 -17 -7 -34 -19
-37 -27 -3 -8 -10 -14 -16 -14 -21 0 -9 20 27 45 21 14 33 25 27 25 -16 0 -25
120 -13 191 17 106 54 159 112 159 38 0 52 -26 52 -99 1 -36 4 -72 8 -78 4 -7
0 -16 -11 -22 -25 -13 -57 -75 -49 -95 4 -9 14 -15 24 -15 17 1 17 2 1 6 -29
7 -23 43 7 43 17 0 25 -6 25 -17 0 -14 2 -15 9 -4 12 19 31 5 31 -23 0 -30 10
-39 28 -23 13 10 14 8 8 -11 -5 -14 -3 -22 4 -22 8 0 10 11 6 33 -6 31 -4 34
28 46 21 9 39 26 50 47 9 19 25 36 39 39 22 6 23 10 23 85 -1 63 3 82 18 99
25 28 48 27 85 -4z m1214 1 c59 -13 116 -31 126 -40 11 -10 23 -35 29 -57 10
-41 10 -41 -26 -56 -57 -24 -117 -13 -200 36 -40 24 -72 47 -72 52 0 18 23 19
95 0 41 -10 75 -17 75 -15 0 3 -34 20 -75 39 -47 21 -75 40 -75 49 0 20 -6 20
123 -8z m-3094 -43 c-7 -10 -14 -19 -15 -21 -1 -1 -46 -13 -100 -27 -55 -13
-124 -33 -154 -44 l-55 -21 55 6 c30 3 97 15 149 25 52 11 96 18 98 16 2 -2 1
-11 -3 -20 -7 -20 -67 -43 -254 -98 -119 -35 -152 -41 -200 -36 -61 5 -130 32
-130 50 0 21 99 106 137 117 36 11 412 67 462 69 21 1 22 -1 10 -16z m271 7
c-8 -5 -19 -10 -25 -10 -5 0 -3 5 5 10 8 5 20 10 25 10 6 0 3 -5 -5 -10z
m1414 1 c3 -4 -6 -6 -21 -3 -18 3 -30 -1 -40 -13 -7 -11 -13 -14 -13 -9 0 27
60 48 74 25z m1798 -21 c247 -34 284 -46 343 -111 34 -38 35 -42 20 -59 -19
-21 -87 -40 -143 -40 -42 0 -303 74 -385 109 -29 12 -47 27 -47 37 0 12 6 15
23 11 44 -11 251 -47 266 -46 25 1 -83 37 -195 65 -69 18 -104 31 -112 45 -7
10 -8 19 -3 19 6 0 110 -14 233 -30z m-3492 -29 c0 -5 -19 -11 -42 -15 -24 -4
-54 -10 -68 -13 -48 -11 -14 7 41 21 66 18 69 18 69 7z m373 3 c4 -4 -9 -24
-27 -45 -61 -67 -64 -88 -7 -39 54 47 101 80 113 80 26 0 -65 -141 -132 -205
-27 -26 -38 -30 -88 -30 l-57 0 -9 47 c-12 62 1 80 100 146 77 51 94 58 107
46z m2644 -46 c97 -67 109 -85 97 -146 l-9 -47 -57 0 c-66 0 -79 10 -164 121
-80 104 -70 147 16 70 107 -96 115 -98 46 -12 -25 30 -42 57 -39 60 14 14 39
3 110 -46z m328 36 c51 -9 36 -17 -19 -9 -25 4 -46 12 -46 17 0 6 6 8 14 5 8
-3 31 -9 51 -13z m-2945 -3 c0 -5 -12 -17 -27 -26 l-28 -18 24 27 c26 28 31
31 31 17z m2506 -12 c19 -22 19 -22 -3 -10 -13 6 -23 16 -23 21 0 15 5 12 26
-11z m-2426 -54 c11 -13 7 -28 -20 -86 -18 -39 -30 -72 -27 -75 3 -3 22 22 42
55 29 47 43 61 61 61 13 0 24 -5 24 -10 0 -25 -101 -209 -117 -214 -10 -3 -34
-8 -54 -11 -34 -6 -36 -5 -53 33 -11 24 -15 48 -11 62 9 28 125 200 135 200 4
0 13 -7 20 -15z m2406 -78 c34 -50 65 -100 68 -110 3 -10 -2 -36 -11 -58 -16
-40 -16 -40 -57 -33 -22 3 -49 11 -59 16 -16 8 -107 185 -107 208 0 4 9 10 20
13 15 4 28 -9 61 -59 23 -36 44 -63 46 -60 3 2 -10 36 -27 76 -25 57 -29 74
-19 86 6 8 14 14 18 14 3 0 34 -42 67 -93z m608 -8 c153 -64 195 -95 222 -165
21 -55 15 -70 -35 -85 -77 -23 -130 5 -425 219 -101 74 -115 87 -93 90 16 2
77 -24 171 -74 81 -42 149 -74 151 -72 9 9 -154 110 -166 103 -7 -5 -10 -4 -5
3 3 6 -10 20 -30 33 -25 15 -32 24 -23 30 14 8 26 4 233 -82z m-3474 78 c0 -2
-54 -39 -120 -82 -66 -43 -118 -80 -116 -83 3 -2 71 30 152 72 93 49 155 76
171 74 21 -3 2 -19 -114 -104 -274 -200 -328 -228 -404 -205 -22 7 -43 19 -46
27 -9 24 25 98 61 133 52 51 416 197 416 168z m40 -11 c0 -5 -90 -56 -99 -56
-3 0 14 14 39 30 42 28 60 36 60 26z m1550 -6 c0 -5 -4 -10 -10 -10 -5 0 -10
5 -10 10 0 6 5 10 10 10 6 0 10 -4 10 -10z m1656 -11 c47 -28 43 -34 -6 -9
-22 11 -40 23 -40 25 0 9 13 5 46 -16z m-2229 -64 l2 -70 -19 65 c-24 79 -24
82 -2 78 14 -3 17 -15 19 -73z m1237 67 c3 -5 -3 -35 -14 -68 l-18 -59 -1 61
c-1 33 2 64 6 67 9 9 21 9 27 -1z m-1783 -25 c-10 -9 -11 -8 -5 6 3 10 9 15
12 12 3 -3 0 -11 -7 -18z m1163 0 c17 -14 26 -29 22 -35 -10 -17 -26 -15 -26
3 0 19 -14 19 -30 0 -11 -13 -10 -14 4 -9 9 3 16 1 16 -6 0 -21 -35 -5 -38 18
-4 27 4 52 15 52 4 0 21 -11 37 -23z m1140 7 c3 -8 2 -12 -4 -9 -6 3 -10 10
-10 16 0 14 7 11 14 -7z m-2167 -8 c-11 -28 -30 -137 -25 -142 3 -2 18 25 33
61 26 60 45 79 59 56 7 -10 -32 -219 -45 -243 -8 -15 -65 -38 -96 -38 -20 0
-57 62 -57 94 0 40 82 214 103 219 29 8 33 7 28 -7z m19 -22 c-4 -14 -9 -24
-12 -21 -3 2 -2 17 2 31 3 15 9 25 11 22 3 -3 2 -17 -1 -32z m214 -112 c0 -53
3 -107 6 -119 4 -15 -1 -29 -19 -47 -39 -39 -71 -43 -117 -12 -35 23 -40 31
-40 63 0 67 24 203 35 199 5 -2 18 3 28 12 16 14 17 11 18 -44 1 -32 4 -72 8
-89 6 -23 9 -12 15 50 4 44 9 93 13 110 l5 29 24 -28 c22 -24 24 -37 24 -124z
m1625 35 c8 -104 25 -100 25 7 0 68 0 69 19 52 11 -10 24 -15 29 -12 9 5 32
-127 34 -192 1 -36 -20 -65 -61 -82 -35 -14 -97 8 -109 39 -4 11 -5 74 -2 140
5 98 9 124 25 141 26 28 32 14 40 -93z m164 63 c1 -13 0 -13 -9 0 -5 8 -9 24
-9 35 l0 20 9 -20 c5 -11 9 -27 9 -35z m40 40 c10 0 90 -171 97 -207 5 -30
-25 -89 -51 -99 -8 -3 -34 0 -57 7 -50 16 -60 37 -80 174 -10 73 -10 87 3 100
12 13 18 5 44 -58 34 -82 42 -72 21 26 -12 60 -12 68 1 63 8 -3 18 -6 22 -6z
m-2559 -27 c0 -10 -48 -72 -105 -138 -58 -66 -105 -124 -105 -129 0 -4 49 37
109 93 60 55 111 101 115 101 26 0 -12 -61 -117 -187 -157 -188 -158 -188
-216 -187 -74 1 -81 6 -81 61 0 27 7 58 15 70 15 21 371 333 380 333 3 0 5 -8
5 -17z m885 -64 c33 -105 32 -141 -2 -178 l-28 -30 -37 18 c-21 11 -38 15 -38
10 0 -5 19 -18 42 -30 l42 -21 23 28 c15 20 23 24 23 13 0 -8 -11 -26 -24 -38
l-23 -22 -47 23 c-27 13 -49 31 -52 43 -3 11 -8 69 -12 128 -7 103 -7 108 12
105 14 -2 26 -23 45 -77 29 -85 36 -80 23 16 -9 65 -4 93 19 93 4 0 20 -36 34
-81z m1301 71 c7 -7 8 -33 2 -76 -13 -99 -6 -106 23 -23 20 56 31 75 46 77 19
3 20 -1 17 -40 -2 -24 -6 -77 -9 -118 -4 -42 -9 -81 -13 -87 -4 -6 -27 -20
-51 -32 l-43 -22 -24 22 c-13 12 -24 30 -24 38 0 11 8 7 23 -13 l23 -28 42 21
c23 12 42 26 42 31 0 6 -18 1 -39 -10 l-40 -20 -25 31 c-33 39 -33 70 -1 176
26 83 32 92 51 73z m1022 -153 c94 -82 179 -158 187 -170 16 -23 20 -94 6
-115 -4 -8 -31 -14 -63 -15 -69 -2 -64 -6 -225 186 -105 126 -143 187 -117
187 4 0 55 -46 115 -101 60 -56 109 -97 109 -93 -1 5 -48 63 -105 129 -57 66
-104 128 -105 138 0 25 0 25 198 -146z m-2551 101 c-2 -13 -4 -5 -4 17 -1 22
1 32 4 23 2 -10 2 -28 0 -40z m1710 15 c-3 -10 -5 -4 -5 12 0 17 2 24 5 18 2
-7 2 -21 0 -30z m-1547 -25 c0 -36 -4 -35 -14 5 -4 16 -2 27 4 27 5 0 10 -14
10 -32z m1394 5 c-10 -40 -14 -41 -14 -5 0 18 5 32 10 32 6 0 8 -11 4 -27z
m-2232 -36 c-23 -23 -42 -38 -42 -34 0 12 72 88 78 82 3 -3 -13 -25 -36 -48z
m3088 -21 c0 -13 -49 34 -62 59 -6 12 4 6 26 -14 20 -19 36 -39 36 -45z
m-2972 -113 c-75 -117 -112 -183 -105 -183 3 0 46 55 97 121 77 101 95 118
102 104 14 -25 8 -40 -84 -206 -105 -190 -112 -199 -177 -199 -45 0 -51 3 -70
34 -25 39 -27 75 -6 102 17 22 20 12 4 -18 -9 -16 -7 -29 7 -60 17 -38 18 -39
58 -33 23 4 50 16 61 28 11 11 13 16 5 9 -9 -6 -34 -14 -56 -17 -38 -7 -40 -5
-51 27 -23 64 -11 99 70 210 133 182 133 181 173 193 22 6 41 10 43 9 2 -2
-30 -56 -71 -121z m2905 8 c113 -152 177 -252 177 -279 0 -13 -9 -40 -21 -58
-19 -31 -25 -34 -68 -34 -56 0 -76 18 -138 125 -107 186 -135 245 -129 271 9
34 16 27 117 -107 44 -60 83 -109 85 -109 8 0 -28 64 -102 181 -41 64 -74 119
-74 121 0 3 18 0 41 -6 35 -9 50 -23 112 -105z m-2832 61 c-5 -10 -18 -25 -28
-33 -12 -10 -11 -5 6 19 24 35 38 43 22 14z m1183 -74 c-3 -51 -6 -120 -8
-153 -2 -33 1 -68 6 -79 13 -25 -16 -89 -62 -135 l-35 -35 -6 44 c-3 25 0 79
7 120 7 41 13 113 14 159 0 66 4 88 18 103 32 36 65 68 68 68 1 0 1 -42 -2
-92z m1527 45 l31 -48 -36 40 c-32 37 -43 55 -31 55 2 0 18 -21 36 -47z
m-2565 -85 c-18 -37 -24 -44 -20 -24 8 44 36 103 41 89 2 -7 -7 -36 -21 -65z
m2401 -3 c25 -75 25 -98 0 -38 -8 21 -23 55 -32 77 -12 29 -13 37 -3 34 7 -3
23 -35 35 -73z m-2417 44 c0 -5 -16 -64 -36 -130 -20 -66 -34 -122 -31 -125 4
-5 87 176 101 224 9 28 19 28 35 -2 12 -21 8 -42 -28 -168 -58 -197 -65 -210
-125 -226 l-48 -14 -34 33 c-19 18 -34 43 -34 55 0 52 139 350 167 357 30 8
33 7 33 -4z m2461 1 c20 0 159 -308 159 -352 0 -14 -14 -38 -34 -57 -32 -31
-35 -32 -75 -21 -23 6 -50 19 -60 29 -15 15 -112 316 -111 347 0 6 8 18 18 27
17 15 21 10 72 -110 29 -70 55 -122 57 -117 2 5 -13 64 -32 129 -40 137 -40
139 -19 131 9 -3 20 -6 25 -6z m-2236 -90 l-14 -55 5 50 c6 48 12 70 19 63 2
-2 -2 -28 -10 -58z m1980 -5 c3 -34 2 -42 -3 -25 -16 47 -23 95 -12 84 5 -5
12 -32 15 -59z m-2008 -67 c-7 -118 3 -113 28 15 17 85 18 87 39 74 19 -13 21
-25 24 -128 3 -135 -5 -160 -59 -185 -39 -17 -42 -17 -75 1 -66 35 -67 39 -49
161 23 151 24 153 89 163 5 0 6 -43 3 -101z m2026 -94 c3 -4 4 39 0 95 -3 55
-4 101 -1 101 3 0 19 -5 37 -11 34 -12 35 -14 51 -134 6 -44 13 -90 16 -103 5
-27 -42 -78 -81 -88 -32 -8 -90 21 -104 52 -6 14 -11 76 -11 143 0 112 1 118
22 128 22 10 23 7 44 -83 11 -52 23 -97 27 -100z m-1680 152 c11 -9 22 -37 28
-77 6 -35 12 -65 15 -68 2 -2 4 30 4 72 0 42 5 79 10 82 6 4 10 -37 10 -115
l0 -120 -34 -38 c-19 -20 -38 -34 -41 -30 -4 4 -2 30 5 59 15 60 8 161 -14
213 -16 38 -12 44 17 22z m1291 -1 c3 -9 3 -35 0 -59 -4 -25 -2 -52 5 -62 9
-16 10 -12 11 23 0 53 14 89 38 102 20 10 20 10 1 -50 -22 -72 -24 -126 -5
-197 16 -62 6 -66 -40 -16 l-34 35 0 120 c0 108 8 144 24 104z m-494 -79 c0
-16 -18 -31 -27 -22 -8 8 5 36 17 36 5 0 10 -6 10 -14z m-100 -21 c0 -9 -9
-15 -25 -15 -16 0 -25 6 -25 15 0 9 9 15 25 15 16 0 25 -6 25 -15z m-656 -258
l-27 -42 27 24 c25 24 26 24 26 4 0 -11 3 -34 6 -50 5 -28 2 -32 -40 -51 -60
-29 -148 -30 -193 -2 -43 26 -42 33 2 14 19 -7 58 -13 87 -13 l53 2 -58 7
c-65 8 -102 30 -51 30 47 0 96 33 122 81 12 24 33 54 45 67 l22 24 3 -27 c2
-17 -7 -43 -24 -68z m1296 8 c22 -46 80 -85 126 -85 51 0 8 -24 -54 -31 l-57
-6 55 -1 c32 -1 67 4 84 13 41 22 45 10 5 -14 -47 -29 -134 -28 -195 1 -42 19
-45 23 -40 51 3 16 6 39 6 50 0 20 1 20 27 -4 l26 -24 -26 40 c-15 22 -27 53
-27 69 l0 29 25 -23 c14 -13 34 -42 45 -65z m-1558 -155 c-15 -9 -35 -28 -44
-42 -13 -20 -28 -26 -69 -31 -29 -4 -54 -5 -56 -3 -8 7 51 68 81 83 44 23 89
32 104 20 10 -8 6 -14 -16 -27z m311 25 c4 -8 2 -17 -4 -20 -5 -4 -6 -11 -3
-17 5 -7 2 -9 -8 -6 -8 4 -28 -5 -44 -18 l-29 -24 48 21 c29 12 56 18 69 13
l22 -7 -22 -18 c-13 -10 -48 -27 -79 -39 l-55 -21 -42 21 c-32 15 -62 20 -125
20 l-83 0 14 22 c29 43 62 60 101 53 42 -8 48 -20 15 -28 -13 -4 -32 -13 -43
-21 -18 -14 -17 -14 20 -6 22 5 51 10 64 10 21 0 22 -2 10 -17 -13 -17 -13
-17 11 0 63 44 146 97 151 97 4 0 9 -7 12 -15z m1221 -16 c70 -43 124 -87 137
-111 11 -20 10 -21 -45 -14 -59 7 -149 37 -180 61 -15 12 -17 18 -8 27 9 9 21
7 53 -5 24 -9 44 -15 46 -13 2 1 -14 15 -36 30 -25 17 -38 33 -34 42 7 19 8
19 67 -17z m337 -5 c15 -7 39 -28 54 -46 25 -30 26 -33 9 -45 -34 -25 -81 -8
-108 39 -10 16 -31 37 -47 47 -20 12 -25 21 -18 28 12 12 64 1 110 -23z m-87
-28 c20 -18 36 -40 36 -48 0 -16 -40 -38 -69 -38 -29 0 -84 26 -105 49 -19 21
-19 21 5 21 13 0 40 -4 58 -10 49 -14 50 -5 2 16 -46 20 -51 31 -18 37 46 9
57 6 91 -27z m-1589 15 c-6 -11 -64 -25 -72 -18 -3 3 10 10 28 16 45 12 51 13
44 2z m1285 -1 c8 -5 11 -10 5 -10 -5 0 -17 5 -25 10 -8 5 -10 10 -5 10 6 0
17 -5 25 -10z m170 -12 c10 -6 4 -7 -20 -3 -19 3 -39 10 -45 16 -12 12 41 2
65 -13z m-2005 -22 c39 -17 60 -49 47 -73 -8 -14 -12 -12 -25 13 -16 28 -16
28 -17 5 0 -17 -3 -21 -12 -14 -18 14 -59 23 -52 12 3 -5 14 -9 25 -9 16 0 19
-4 13 -22 -3 -13 -11 -24 -15 -26 -13 -5 -11 -32 2 -32 5 0 7 -4 4 -10 -3 -5
-1 -10 4 -10 6 0 11 -5 11 -10 0 -7 -6 -8 -17 -1 -22 12 -53 -3 -53 -26 0 -14
-2 -14 -25 1 -13 9 -33 16 -45 16 -18 0 -17 5 15 49 19 26 35 52 35 56 0 13
54 95 63 95 4 0 23 -6 42 -14z m750 -18 l26 -12 -43 -23 -43 -24 45 6 c25 3
55 8 67 11 17 5 27 -1 43 -28 27 -45 26 -48 -17 -32 -50 18 -89 17 -152 -2
-81 -24 -87 -6 -21 61 30 30 58 55 62 55 4 0 19 -5 33 -12z m1097 -55 c36 -38
70 -78 77 -91 11 -21 9 -20 -35 8 -70 44 -143 57 -213 39 l-57 -15 21 39 c18
34 23 37 50 32 17 -3 48 -8 70 -11 l40 -5 -28 16 c-16 9 -35 14 -43 11 -9 -3
-12 -1 -9 5 4 6 -4 8 -22 4 -18 -4 -12 1 17 14 25 10 50 19 56 20 6 1 40 -29
76 -66z m-2048 25 c20 -28 21 -44 1 -28 -20 17 -19 0 2 -30 l16 -25 -26 24
c-26 24 -39 17 -15 -7 9 -9 8 -12 -5 -12 -11 0 -17 -8 -17 -25 0 -14 -6 -25
-13 -25 -24 0 -38 -22 -24 -39 10 -12 9 -14 -4 -9 -9 4 -21 2 -27 -4 -7 -7
-26 -7 -61 2 -49 11 -61 30 -20 30 12 0 19 7 19 18 0 10 19 38 43 63 23 25 50
55 59 67 23 28 53 28 72 0z m1001 2 c-27 -12 -43 -12 -25 0 8 5 22 9 30 9 10
0 8 -3 -5 -9z m89 -31 c31 -47 41 -47 25 0 -6 18 -9 34 -6 38 13 12 27 -12 53
-90 15 -45 29 -89 32 -97 9 -26 -68 52 -114 116 -48 67 -51 74 -30 74 7 0 26
-18 40 -41z m112 6 c24 -51 36 -53 28 -6 -6 37 -5 41 15 41 19 0 21 -5 21 -67
0 -38 3 -79 7 -93 6 -25 6 -25 -27 5 -26 25 -90 130 -90 150 0 3 7 5 15 5 8 0
22 -16 31 -35z m460 -5 c-3 -22 -4 -40 -1 -40 2 0 14 18 25 40 11 22 27 40 35
40 8 0 15 -3 15 -6 0 -18 -66 -126 -92 -150 l-31 -29 7 34 c3 18 6 60 6 92 0
54 2 59 21 59 20 0 21 -4 15 -40z m120 16 c-3 -13 -9 -32 -12 -43 -4 -13 0
-11 15 7 11 14 19 31 16 38 -3 7 -1 10 4 7 5 -3 12 -1 16 5 3 5 13 10 21 10
12 0 11 -7 -6 -38 -23 -42 -130 -166 -136 -159 -6 5 35 135 52 170 18 34 38
36 30 3z m1075 9 c26 -14 89 -99 91 -122 0 -4 7 -17 14 -28 20 -29 17 -38 -11
-33 -14 3 -28 1 -31 -4 -3 -4 -9 -6 -13 -3 -5 2 -16 -4 -26 -15 -21 -23 -55
-11 -55 20 0 11 -4 20 -10 20 -5 0 -10 11 -10 25 0 14 -4 25 -10 25 -5 0 -10
12 -10 27 0 21 -3 24 -12 15 -9 -9 -9 -20 1 -48 7 -19 11 -38 8 -41 -3 -2 -8
5 -12 16 -3 12 -14 28 -23 37 -15 15 -15 17 1 29 9 7 17 25 17 41 0 22 -3 25
-12 16 -7 -7 -17 -12 -22 -12 -6 0 3 11 19 25 35 28 64 31 106 10z m464 -8 c8
-13 20 -38 26 -57 7 -19 21 -46 31 -60 l19 -24 -37 -19 c-20 -10 -38 -27 -41
-37 -3 -10 -11 -21 -19 -24 -18 -7 -46 22 -37 37 5 8 9 6 11 -5 4 -22 18 -23
26 -3 3 8 1 15 -4 15 -5 0 -13 12 -16 28 -10 40 -14 44 -30 31 -11 -9 -11 -15
-3 -25 6 -8 7 -14 2 -14 -11 0 -43 64 -43 85 0 8 5 15 10 15 6 0 10 9 10 19 0
21 44 61 66 61 7 0 20 -10 29 -23z m-2640 -7 c34 -7 62 -31 175 -148 163 -168
200 -190 353 -212 46 -7 96 -24 157 -55 116 -58 153 -59 227 -8 48 33 62 37
121 39 37 1 89 5 116 9 37 6 47 5 42 -4 -4 -7 -3 -18 4 -26 14 -17 9 -77 -7
-83 -9 -2 -13 10 -13 42 0 49 -9 61 -41 51 -16 -6 -18 -9 -8 -22 8 -9 13 -50
13 -109 1 -99 5 -106 47 -84 18 10 18 13 4 33 -22 32 -19 51 15 75 17 13 30
29 30 37 0 8 4 15 10 15 13 0 31 -35 46 -92 11 -45 11 -48 -7 -48 -13 0 -19
-7 -19 -24 0 -29 14 -41 28 -23 12 14 42 157 42 197 0 16 5 32 10 35 18 11 10
26 -12 23 -21 -3 -23 -8 -20 -48 3 -44 -12 -48 -20 -5 -2 13 -11 20 -26 19
-12 0 -24 7 -27 17 -3 9 -13 20 -23 24 -14 5 -14 7 4 18 11 7 42 26 68 43 25
18 63 35 84 39 56 10 79 29 111 93 52 103 165 185 254 184 29 0 64 -5 79 -11
22 -8 29 -7 36 5 6 12 13 9 37 -16 27 -28 27 -30 8 -30 -17 0 -20 -5 -15 -22
3 -13 10 -26 16 -30 7 -5 4 -8 -6 -8 -25 0 -23 -10 11 -50 31 -39 61 -93 61
-111 0 -9 -25 -10 -99 -6 -121 7 -127 4 -183 -106 -59 -118 -73 -135 -121
-147 -83 -20 -113 -34 -184 -83 -68 -47 -75 -50 -165 -59 -74 -7 -107 -16
-164 -43 -80 -40 -113 -43 -231 -20 -43 9 -141 20 -218 25 -258 18 -386 73
-521 227 -143 162 -159 175 -262 207 -79 24 -95 26 -109 15 -12 -10 -15 -10
-9 -1 5 8 0 12 -16 12 -16 0 -27 9 -38 33 -8 17 -14 34 -13 37 0 3 4 24 8 48
8 48 -10 59 -20 12 -4 -16 -11 -30 -16 -30 -5 0 -9 -9 -9 -19 0 -11 -5 -23
-10 -26 -7 -5 -8 -11 -1 -19 7 -8 4 -12 -10 -12 -10 0 -19 2 -19 3 0 2 16 34
35 72 19 37 35 82 35 99 0 38 18 49 98 62 62 10 213 4 277 -10z m667 -5 c40
-27 74 -89 87 -156 8 -46 11 -43 31 31 21 79 59 126 117 144 21 7 21 7 7 -55
-16 -70 -69 -176 -114 -229 l-30 -35 -30 35 c-63 74 -149 290 -116 290 6 0 28
-11 48 -25z m-512 10 c0 -11 -59 -34 -65 -25 -3 6 4 14 17 19 26 11 48 13 48
6z m1291 -21 c10 -9 19 -11 20 -5 3 6 20 4 44 -5 24 -8 41 -10 43 -4 2 6 13
10 23 10 11 0 17 4 14 10 -3 6 1 7 10 4 14 -6 14 -8 -2 -20 -10 -7 -23 -14
-28 -14 -6 0 -16 -9 -23 -21 l-13 -21 -33 26 c-19 14 -36 23 -39 20 -6 -6 -87
33 -87 42 0 10 54 -7 71 -22z m973 9 c38 -18 57 -63 37 -87 -9 -10 -8 -15 4
-20 8 -3 15 -12 15 -20 0 -7 7 -16 15 -20 19 -7 10 -31 -21 -51 -24 -15 -26
-15 -54 14 -17 16 -30 33 -30 37 0 12 -32 44 -44 44 -7 0 -7 -3 -1 -8 11 -8
37 -74 31 -80 -5 -5 -66 122 -66 137 0 6 -10 11 -21 11 -18 0 -19 2 -9 15 7 8
16 13 20 10 4 -2 15 4 25 15 22 24 53 25 99 3z m-3357 -23 c6 -16 7 -30 2 -30
-5 0 -9 -9 -9 -20 0 -11 -5 -20 -11 -20 -5 0 -7 -4 -4 -10 3 -5 -1 -10 -11
-10 -14 0 -16 -7 -11 -42 6 -42 6 -42 -9 -20 -12 15 -27 22 -50 22 -19 0 -34
3 -34 6 0 12 58 72 64 67 3 -4 6 12 6 35 0 23 5 42 13 45 28 12 43 5 54 -23z
m1603 -166 c14 -21 39 -61 57 -88 31 -46 46 -116 24 -116 -49 0 -125 168 -145
320 l-5 45 22 -61 c13 -33 34 -78 47 -100z m804 147 c-2 -3 7 -12 21 -21 25
-16 25 -17 6 -34 -18 -16 -20 -16 -38 11 -34 49 -34 51 -9 49 13 0 22 -3 20
-5z m-549 -85 c-26 -124 -103 -290 -133 -284 -9 2 -15 6 -14 11 1 4 2 22 2 40
0 23 16 57 55 116 30 45 64 109 76 142 12 33 24 58 26 56 2 -3 -3 -39 -12 -81z
m-564 62 l34 -13 -61 -6 c-39 -3 -72 -14 -91 -27 -29 -21 -31 -21 -47 -3 -22
24 -21 28 12 45 33 19 107 20 153 4z m975 -7 c41 -25 82 -79 90 -119 6 -28 3
-33 -20 -42 -40 -15 -46 -13 -46 19 0 38 -38 92 -80 113 -19 10 -57 18 -85 18
-48 1 -49 1 -25 15 37 21 128 19 166 -4z m-2006 -11 c0 -5 -2 -10 -4 -10 -3 0
-8 5 -11 10 -3 6 -1 10 4 10 6 0 11 -4 11 -10z m1300 -159 c11 -35 20 -71 20
-82 0 -25 -27 -14 -36 14 -3 12 -18 37 -32 56 -24 33 -53 99 -66 155 -6 26 -2
24 43 -25 38 -40 56 -70 71 -118z m382 95 c-11 -36 -32 -79 -46 -96 -14 -17
-31 -50 -37 -73 -21 -77 -19 -73 -29 -57 -29 46 10 170 76 244 27 29 50 52 52
51 2 -2 -5 -33 -16 -69z m420 27 c28 -27 36 -57 18 -68 -5 -3 -10 0 -10 8 0 8
-11 31 -25 51 -29 43 -22 47 17 9z m-1945 -15 c-3 -8 -6 -5 -6 6 -1 11 2 17 5
13 3 -3 4 -12 1 -19z m-124 -38 c3 -11 2 -20 -3 -20 -4 0 -10 9 -13 20 -3 11
-2 20 3 20 4 0 10 -9 13 -20z m2782 -21 c-6 -9 -35 -1 -35 10 0 4 3 11 7 14 8
9 34 -13 28 -24z m15 -49 c-21 -14 -30 -12 -30 4 0 18 22 27 35 14 6 -6 5 -12
-5 -18z m524 14 c12 -31 7 -46 -14 -39 -13 4 -22 1 -26 -9 -3 -9 -11 -16 -18
-16 -6 0 -24 -22 -40 -48 -27 -44 -29 -46 -39 -25 -17 38 0 69 60 112 65 46
68 47 77 25z m-2095 -86 c1 -5 -3 -8 -9 -8 -5 0 -10 12 -9 28 0 24 1 25 9 7 5
-11 9 -23 9 -27z m381 -3 c0 -39 -3 -45 -21 -45 -21 0 -21 6 2 68 13 34 19 27
19 -23z m-1225 25 c3 -5 -1 -10 -9 -10 -9 0 -16 5 -16 10 0 6 4 10 9 10 6 0
13 -4 16 -10z m125 -59 c-12 -23 -30 -36 -30 -22 0 21 13 41 26 41 11 0 12 -4
4 -19z m1013 -43 c-2 -5 -8 -8 -14 -8 -11 0 -12 31 -2 57 6 15 8 13 13 -12 4
-16 5 -33 3 -37z m1079 30 c3 -8 16 -9 49 -2 40 8 46 7 68 -14 30 -30 22 -37
-22 -19 -21 9 -39 11 -44 6 -5 -5 -31 -10 -57 -11 -44 -2 -47 -4 -41 -25 6
-26 -6 -30 -24 -9 -8 9 -8 21 -2 39 15 38 64 62 73 35z m522 -57 c32 -26 46
-51 24 -43 -5 1 -8 -5 -8 -13 0 -9 -9 -15 -24 -15 -14 0 -28 -4 -31 -10 -7
-12 -105 -14 -105 -1 0 9 94 111 102 111 3 0 22 -13 42 -29z m-3351 -64 c-11
-12 -12 -17 -4 -12 11 6 13 4 8 -8 -4 -12 -1 -17 10 -17 11 0 -1 -17 -32 -47
-29 -29 -50 -43 -52 -35 -3 6 -14 12 -26 12 -12 0 -28 4 -36 9 -9 6 -2 10 23
13 21 2 36 0 37 -7 0 -5 3 -3 6 5 3 8 12 30 21 48 8 18 12 36 8 39 -3 4 1 15
10 25 13 14 20 15 31 7 11 -10 11 -15 -4 -32z m3534 16 c-9 -8 -48 8 -42 18 4
5 14 5 26 -2 12 -6 18 -13 16 -16z m-3747 2 c0 -8 -4 -15 -10 -15 -5 0 -7 7
-4 15 4 8 8 15 10 15 2 0 4 -7 4 -15z m3656 -52 c-6 -6 -36 9 -36 18 0 5 9 4
20 -3 10 -7 18 -14 16 -15z m64 -12 c5 -11 10 -31 10 -45 0 -21 -5 -26 -25
-26 -14 0 -25 -4 -25 -10 0 -5 -7 -10 -15 -10 -8 0 -15 5 -15 10 0 6 5 10 11
10 6 0 9 7 5 15 -3 9 0 15 9 15 8 0 15 9 15 20 0 11 -6 20 -12 20 -9 0 -8 4 2
10 22 14 28 12 40 -9z m-3660 -82 c0 -6 -4 -7 -10 -4 -5 3 -10 11 -10 16 0 6
5 7 10 4 6 -3 10 -11 10 -16z m46 -17 c-9 -9 -37 8 -31 18 5 8 11 7 21 -1 8
-6 12 -14 10 -17z m1268 -55 c17 -12 14 -16 -33 -46 -103 -66 -161 -162 -169
-279 -7 -112 26 -183 93 -197 l30 -6 -32 15 c-42 19 -65 67 -71 147 -8 119 42
215 158 302 50 38 67 46 88 41 15 -4 28 -8 30 -9 2 -2 -18 -23 -44 -48 -45
-42 -48 -48 -52 -104 -4 -56 -2 -61 24 -82 19 -15 36 -20 51 -16 28 7 29 -4 2
-39 -27 -35 -82 -36 -132 -2 -28 19 -38 22 -46 12 -20 -24 -23 -72 -7 -104 17
-32 41 -42 135 -57 45 -7 81 -34 81 -60 0 -11 -7 -14 -25 -9 -18 5 -40 -4 -87
-36 -56 -37 -68 -41 -109 -38 -88 9 -147 79 -150 177 -1 28 -6 51 -10 51 -17
0 -57 -61 -68 -103 -11 -47 -31 -72 -31 -40 0 10 -14 35 -31 56 -37 45 -48 81
-38 126 9 42 63 98 102 107 l29 6 -40 18 c-32 14 -43 26 -50 52 -11 42 1 86
33 117 l25 26 0 -31 c0 -31 27 -65 62 -77 32 -11 86 14 169 78 46 36 87 65 90
65 3 0 13 -6 23 -13z m941 -39 c69 -46 138 -118 166 -174 19 -40 24 -65 24
-134 0 -99 -18 -144 -68 -165 -18 -8 -26 -14 -19 -15 27 0 72 31 88 62 22 43
29 135 14 197 -16 70 -80 164 -136 204 -85 59 -83 56 -39 57 34 0 51 -9 109
-55 37 -30 84 -59 103 -64 60 -17 113 17 113 71 0 31 0 31 21 12 64 -56 57
-142 -13 -174 l-40 -18 29 -6 c41 -9 93 -65 103 -111 9 -42 -1 -79 -30 -110
-10 -11 -25 -35 -33 -54 -16 -38 -20 -35 -37 29 -10 39 -53 100 -70 100 -3 0
-7 -23 -8 -51 -4 -100 -62 -168 -150 -176 -42 -4 -53 -1 -107 36 -46 32 -67
41 -87 37 -20 -4 -28 -1 -28 9 0 29 42 54 113 65 91 16 122 43 114 101 -3 22
-11 46 -17 54 -10 12 -17 11 -44 -10 -44 -34 -98 -34 -131 0 -31 30 -32 47 -2
40 29 -8 73 25 80 61 10 52 -13 102 -69 153 -51 47 -54 58 -13 60 8 1 37 -13
64 -31z m-687 -40 c-87 -133 -118 -209 -126 -309 -5 -77 14 -147 53 -194 l25
-30 -27 53 c-21 42 -28 72 -31 135 -4 98 14 159 86 284 41 72 51 83 75 83 15
0 27 -4 27 -8 0 -5 -19 -53 -41 -108 -54 -127 -69 -185 -69 -259 1 -103 40
-164 118 -180 40 -8 40 -16 3 -48 -41 -34 -117 -51 -167 -38 -77 21 -144 81
-130 116 6 17 42 20 52 4 10 -16 24 10 24 44 0 34 -48 87 -79 87 -25 0 -30 9
-24 41 3 17 16 32 37 42 46 21 94 130 51 113 -35 -13 1 72 67 157 23 28 37 37
60 37 29 0 30 -1 16 -22z m213 -205 c1 -126 5 -259 9 -298 4 -45 7 36 8 223
l2 292 29 0 c29 0 30 -2 50 -89 30 -127 51 -274 51 -358 0 -87 -19 -100 -21
-15 -2 103 -17 126 -18 28 -1 -83 -2 -88 -21 -83 -24 6 -25 -4 -5 -44 18 -34
11 -54 -36 -93 -40 -34 -51 -33 -88 9 -34 39 -37 58 -16 95 20 35 18 41 -10
34 l-25 -6 -1 83 -2 84 -8 -65 c-5 -36 -7 -73 -5 -82 2 -10 1 -18 -4 -18 -26
0 -13 195 26 389 13 68 27 128 30 133 3 4 16 8 30 8 l24 0 1 -227z m303 190
c37 -50 86 -137 86 -151 0 -8 -6 -12 -15 -8 -11 4 -15 -2 -15 -24 0 -31 43
-90 66 -90 16 0 34 -31 34 -58 0 -14 -9 -21 -30 -25 -45 -9 -70 -40 -70 -86 0
-40 13 -61 25 -41 9 15 45 12 51 -4 14 -36 -72 -107 -147 -121 -20 -4 -54 -2
-77 4 -39 11 -102 54 -102 71 0 4 19 13 43 18 50 13 73 35 93 89 29 81 13 183
-51 339 -19 46 -35 86 -35 89 0 3 15 5 33 6 17 0 41 4 52 9 31 13 39 11 59
-17z m-377 -618 c13 -19 36 -41 53 -50 27 -14 33 -14 59 0 16 8 39 31 51 50
23 38 36 41 26 7 -8 -24 -90 -102 -107 -102 -15 0 -119 103 -119 118 0 21 15
12 37 -23z m-4370 -373 c80 -42 108 -109 78 -187 -31 -83 -112 -119 -200 -91
l-49 16 -33 -32 c-33 -32 -33 -33 -33 -125 l0 -93 40 0 c29 0 40 -4 40 -15 0
-13 -24 -15 -155 -15 -131 0 -155 2 -155 15 0 11 11 15 40 15 l40 0 0 210 0
209 31 36 c58 66 114 85 229 82 63 -3 96 -9 127 -25z m964 12 c38 -11 67 -29
98 -60 24 -24 52 -44 62 -44 12 0 19 -7 19 -20 0 -19 -7 -20 -120 -20 -101 0
-120 2 -120 15 0 9 7 18 15 21 22 9 19 22 -14 55 -25 25 -37 29 -84 29 -60 0
-97 -21 -121 -68 -15 -31 -29 -109 -21 -122 3 -5 24 0 48 10 89 41 233 16 274
-46 8 -13 24 -24 34 -24 12 0 19 -7 19 -20 0 -19 -7 -20 -120 -20 -113 0 -120
1 -120 20 0 12 7 20 16 20 21 0 12 22 -15 36 -26 13 -97 3 -117 -18 -12 -12
-10 -26 12 -103 14 -50 24 -106 22 -127 -4 -47 8 -52 78 -38 41 9 60 20 88 51
43 46 45 59 10 59 -19 0 -25 4 -22 18 3 15 19 17 131 20 122 2 127 2 127 -18
0 -12 -7 -20 -18 -20 -9 0 -37 -21 -62 -46 -72 -74 -127 -97 -245 -102 -112
-4 -155 6 -155 38 0 31 -17 58 -76 124 -72 80 -91 131 -76 204 21 100 83 163
195 197 59 19 192 18 258 -1z m1014 -11 c50 -26 80 -58 100 -106 10 -25 22
-37 35 -37 13 0 20 -7 20 -20 0 -19 -7 -20 -125 -20 -118 0 -125 1 -125 20 0
14 7 20 21 20 18 0 20 4 14 33 -10 45 -31 83 -50 91 -26 9 -84 7 -106 -4 -61
-33 -71 -175 -25 -345 17 -63 25 -112 21 -132 -7 -38 4 -47 42 -32 59 22 106
90 119 168 6 37 5 41 -15 41 -12 0 -21 6 -21 15 0 13 21 15 125 15 104 0 125
-2 125 -15 0 -8 -8 -15 -18 -15 -13 0 -21 -13 -30 -44 -24 -92 -156 -182 -281
-193 -82 -8 -111 1 -111 33 0 35 -14 59 -73 128 -64 74 -87 120 -87 171 0 111
64 198 174 237 71 26 214 21 271 -9z m2219 14 c14 -10 15 -17 7 -40 -6 -16
-11 -40 -11 -54 0 -23 -3 -24 -27 -17 -95 26 -127 -15 -188 -246 -20 -74 -38
-143 -41 -152 -4 -14 0 -18 20 -18 16 0 26 -6 26 -15 0 -9 -9 -15 -24 -15 -21
0 -25 -6 -30 -47 -4 -27 -2 -70 3 -98 5 -27 8 -51 7 -52 -1 -1 -22 -3 -46 -5
-44 -3 -45 -2 -45 27 1 17 4 63 9 103 l7 72 -43 0 -43 0 -74 260 c-62 219 -77
260 -93 260 -11 0 -18 7 -18 20 0 19 7 20 131 20 119 0 130 -2 127 -17 -2 -11
-15 -20 -34 -23 l-31 -5 56 -198 c30 -108 58 -194 61 -190 4 5 15 40 25 78 28
109 75 256 96 297 11 21 31 44 47 52 34 19 102 20 126 3z m913 -3 c3 -9 -1
-30 -9 -47 -9 -18 -19 -48 -23 -67 -15 -72 -43 -74 -70 -4 -24 64 -55 84 -127
84 l-59 0 3 -97 3 -98 48 -24 c34 -17 73 -25 140 -30 51 -4 98 -11 105 -15 17
-10 17 -227 0 -244 -9 -9 -83 -12 -270 -12 -223 0 -258 2 -258 15 0 11 11 15
40 15 l40 0 0 244 0 245 -37 3 c-26 2 -39 8 -41 20 -3 16 14 18 205 21 114 1
230 3 256 5 36 1 49 -2 54 -14z m3052 7 c11 -7 12 -15 3 -38 -6 -15 -13 -39
-14 -53 -2 -16 -9 -24 -18 -21 -8 2 -35 6 -60 8 -39 4 -51 1 -77 -21 -28 -24
-93 -114 -93 -129 0 -4 7 -7 15 -7 8 0 40 -9 70 -21 99 -37 156 -104 170 -202
7 -44 9 -47 36 -47 19 0 29 -5 29 -15 0 -13 -22 -15 -135 -15 -113 0 -135 2
-135 15 0 8 9 15 20 15 24 0 26 30 9 109 -13 62 -40 98 -93 122 -67 30 -66 33
-66 -106 l0 -125 30 0 c20 0 30 -5 30 -15 0 -13 -23 -15 -145 -15 -120 0 -145
3 -145 14 0 10 13 16 38 18 l37 3 3 243 2 242 -40 0 c-33 0 -40 3 -40 20 0 19
7 20 145 20 138 0 145 -1 145 -20 0 -16 -7 -20 -30 -20 l-30 0 0 -105 c0 -126
11 -135 60 -47 93 165 132 202 215 202 28 0 56 -4 64 -9z m901 -11 c0 -16 -7
-20 -35 -20 l-34 0 68 -197 c110 -316 102 -298 139 -301 20 -2 32 -9 32 -18 0
-11 -26 -14 -145 -14 -122 0 -145 2 -145 15 0 11 11 15 36 15 25 0 35 4 31 13
-2 6 -17 51 -33 99 l-28 87 -33 -68 c-35 -73 -98 -146 -139 -161 -57 -22 -143
-2 -158 35 -26 68 18 181 125 320 114 149 122 172 62 177 -27 2 -39 8 -41 21
-3 16 9 17 147 17 144 0 151 -1 151 -20z m-5862 -7 c-2 -13 -14 -19 -41 -21
l-37 -3 0 -245 0 -244 40 0 c29 0 40 -4 40 -15 0 -13 -23 -15 -150 -15 -127 0
-150 2 -150 15 0 10 10 15 30 15 l30 0 0 245 0 245 -100 0 -100 0 0 -245 0
-245 30 0 c20 0 30 -5 30 -15 0 -13 -23 -15 -145 -15 -122 0 -145 2 -145 15 0
10 11 15 35 15 l35 0 0 245 0 245 -35 0 c-28 0 -35 4 -35 20 0 20 7 20 336 20
314 0 335 -1 332 -17z m2782 -3 c0 -15 -7 -20 -29 -20 -28 0 -28 0 -20 -43 15
-80 58 -241 92 -342 l34 -100 36 -3 c24 -2 37 -8 37 -18 0 -11 -25 -14 -145
-14 -122 0 -145 2 -145 15 0 10 10 15 30 15 17 0 30 2 30 4 0 2 -13 44 -29 93
-16 48 -39 133 -51 188 -13 55 -26 104 -31 109 -10 11 -77 -93 -101 -157 -10
-26 -18 -74 -18 -106 0 -51 3 -61 20 -66 12 -4 22 -19 26 -40 11 -58 3 -65
-75 -65 -96 0 -101 3 -101 59 1 65 16 102 107 253 88 146 113 192 113 208 0 5
-22 10 -50 10 -43 0 -50 3 -50 20 0 19 7 20 160 20 153 0 160 -1 160 -20z
m828 3 c-2 -12 -14 -19 -36 -21 l-32 -3 0 -147 0 -147 105 110 c93 98 104 114
105 147 0 34 -2 37 -32 40 -22 2 -34 9 -36 21 -3 16 9 17 147 17 144 0 151 -1
151 -20 0 -17 -7 -20 -40 -20 l-40 0 0 -245 0 -245 40 0 c29 0 40 -4 40 -15 0
-13 -23 -15 -150 -15 -127 0 -150 2 -150 15 0 10 11 15 35 15 l35 0 0 177 0
178 -105 -105 -105 -105 0 -72 0 -73 35 0 c24 0 35 -5 35 -15 0 -13 -23 -15
-150 -15 -127 0 -150 2 -150 15 0 11 11 15 40 15 l40 0 0 245 0 245 -40 0
c-33 0 -40 3 -40 20 0 19 7 20 151 20 138 0 150 -1 147 -17z"/>
<path d="M3496 7439 c-35 -28 -47 -74 -29 -119 8 -20 54 -74 109 -126 l95 -91
31 21 c43 28 72 79 62 108 -9 31 -204 228 -225 228 -9 0 -28 -9 -43 -21z"/>
<path d="M8289 7374 c-49 -67 -87 -138 -95 -180 -12 -60 50 -85 99 -40 30 27
76 115 79 148 2 22 -29 128 -37 128 -3 0 -23 -25 -46 -56z"/>
<path d="M2664 7324 c-41 -64 -84 -172 -84 -212 0 -46 15 -52 123 -52 89 0 98
2 93 18 -3 9 -16 55 -30 102 -13 47 -30 111 -37 143 -7 31 -16 57 -21 57 -4 0
-24 -25 -44 -56z"/>
<path d="M9207 7489 c-37 -52 46 -149 128 -149 25 0 25 1 25 85 l0 85 -69 0
c-59 0 -72 -3 -84 -21z"/>
<path d="M4590 5683 c0 -5 7 -17 15 -27 8 -11 15 -34 16 -50 0 -29 1 -30 11
-9 8 17 6 29 -12 57 -21 35 -30 44 -30 29z"/>
<path d="M4003 5794 c-22 -34 -29 -123 -13 -193 11 -53 93 -241 104 -241 3 0
-8 29 -24 65 -64 142 -88 282 -59 337 10 18 16 12 66 -64 59 -88 89 -126 56
-68 -11 19 -39 70 -62 113 -23 42 -44 77 -46 77 -3 0 -12 -12 -22 -26z"/>
<path d="M8064 5733 c-26 -49 -54 -98 -62 -110 -8 -13 -11 -23 -8 -23 4 0 33
41 66 90 52 81 60 88 69 71 29 -54 3 -200 -61 -341 -37 -84 -20 -66 25 25 69
139 88 275 47 343 -11 17 -22 32 -24 32 -2 0 -26 -39 -52 -87z"/>
<path d="M5570 5325 c13 -14 26 -25 28 -25 3 0 -5 11 -18 25 -13 14 -26 25
-28 25 -3 0 5 -11 18 -25z"/>
<path d="M5629 5249 c17 -26 31 -53 31 -60 0 -8 6 -5 16 7 8 10 13 13 9 6 -5
-10 70 -132 82 -132 6 0 -18 43 -44 78 -13 17 -22 36 -19 40 5 8 -25 39 -83
87 -20 17 -19 14 8 -26z"/>
<path d="M5831 5000 c0 -8 4 -24 9 -35 5 -13 9 -14 9 -5 0 8 -4 24 -9 35 -5
13 -9 14 -9 5z"/>
<path d="M5887 4645 c3 -27 10 -54 14 -59 13 -14 10 22 -6 69 l-13 40 5 -50z"/>
<path d="M6485 5245 c-27 -25 -49 -50 -47 -55 1 -6 -10 -30 -26 -53 -38 -55
-44 -67 -38 -67 12 0 86 122 81 133 -4 6 0 4 8 -6 15 -18 15 -18 22 2 3 11 17
36 30 55 13 20 23 36 22 36 -1 -1 -24 -21 -52 -45z"/>
<path d="M6422 4680 c0 -14 2 -19 5 -12 2 6 2 18 0 25 -3 6 -5 1 -5 -13z"/>
<path d="M3833 5394 c-11 -30 6 -127 32 -180 14 -29 46 -75 71 -101 l45 -48
-37 50 c-20 28 -48 74 -61 102 -24 52 -43 163 -28 163 4 0 53 -44 108 -97 120
-118 112 -91 -11 37 -87 91 -108 103 -119 74z"/>
<path d="M8223 5362 c-32 -27 -80 -75 -108 -108 l-50 -59 94 83 c124 109 131
113 131 69 0 -56 -28 -133 -75 -204 l-45 -68 40 44 c60 65 94 143 98 223 5 85
-4 87 -85 20z"/>
<path d="M4982 5298 c-19 -19 -14 -28 13 -28 27 0 28 1 19 24 -7 19 -16 20
-32 4z"/>
<path d="M7126 5294 c-9 -23 -8 -24 19 -24 27 0 32 9 13 28 -16 16 -25 15 -32
-4z"/>
<path d="M5767 5215 c17 -22 44 -51 59 -65 27 -25 27 -24 -3 15 -17 22 -44 51
-59 65 -27 25 -27 24 3 -15z"/>
<path d="M6359 5213 c-19 -21 -44 -49 -54 -63 -36 -45 12 -2 56 51 48 58 47
64 -2 12z"/>
<path d="M7616 5097 l-28 -52 32 30 33 30 -7 -45 c-3 -25 -23 -80 -45 -122
-21 -43 -37 -78 -36 -78 14 0 86 130 94 171 11 49 6 119 -8 119 -3 0 -19 -24
-35 -53z"/>
<path d="M4475 5111 c-11 -63 23 -159 79 -226 21 -24 18 -15 -14 50 -22 44
-43 100 -46 125 l-7 45 33 -30 32 -30 -28 52 c-16 29 -32 53 -36 53 -3 0 -9
-17 -13 -39z"/>
<path d="M3770 5008 c0 -30 50 -116 86 -148 27 -25 27 -25 -4 20 -17 25 -39
63 -47 84 l-16 39 40 -7 c23 -3 75 -17 116 -30 41 -13 75 -22 75 -19 0 14
-198 83 -239 83 -6 0 -11 -10 -11 -22z"/>
<path d="M8275 5011 c-71 -21 -160 -59 -153 -66 3 -3 20 1 39 9 47 20 158 48
175 44 17 -4 -19 -86 -61 -138 l-29 -35 33 30 c47 42 91 114 91 147 0 33 -9
34 -95 9z"/>
<path d="M8219 4813 c-13 -16 -12 -17 4 -4 16 13 21 21 13 21 -2 0 -10 -8 -17
-17z"/>
<path d="M4745 4889 c-11 -32 4 -108 31 -161 31 -61 37 -61 14 0 -20 53 -35
132 -25 132 3 0 23 -12 43 -27 l37 -28 -43 53 c-24 28 -45 52 -47 52 -2 0 -7
-9 -10 -21z"/>
<path d="M4870 4717 c0 -15 123 -147 136 -147 9 0 14 5 12 12 -5 13 -148 144
-148 135z m130 -121 c22 -27 -5 -17 -31 10 -21 24 -22 26 -3 16 11 -6 26 -18
34 -26z"/>
<path d="M4738 4553 c-28 -7 -22 -54 12 -93 l31 -35 -21 35 c-32 57 -27 77 23
88 42 10 42 10 7 10 -19 0 -43 -2 -52 -5z"/>
<path d="M4871 4445 c44 -35 69 -44 69 -25 0 9 -90 60 -106 60 -4 0 13 -16 37
-35z"/>
<path d="M4860 4266 c46 -13 60 -12 60 5 0 5 -24 9 -52 8 l-53 -1 45 -12z"/>
<path d="M4778 4133 c-9 -10 -18 -33 -20 -52 -5 -31 -2 -34 40 -52 25 -11 47
-17 50 -15 2 3 -14 13 -37 22 -45 18 -46 22 -27 77 15 42 15 44 -6 20z"/>
<path d="M4881 4119 c-24 -17 -40 -33 -38 -36 8 -7 90 40 95 55 6 20 -12 14
-57 -19z"/>
<path d="M5030 4066 c0 -2 -7 -21 -15 -42 l-16 -39 26 28 c25 29 33 57 15 57
-5 0 -10 -2 -10 -4z"/>
<path d="M5307 4024 c-7 -7 12 -65 26 -79 6 -7 8 -2 3 15 -3 14 -6 35 -6 48 0
21 -10 29 -23 16z"/>
<path d="M5165 4008 c-4 -9 -5 -31 -3 -50 l4 -33 12 40 c7 25 8 43 2 49 -6 6
-12 4 -15 -6z"/>
<path d="M4920 3970 c0 -34 34 -65 75 -68 30 -2 36 0 25 7 -8 6 -25 11 -37 11
-13 0 -29 13 -42 33 -11 17 -21 25 -21 17z"/>
<path d="M5372 3888 c-20 -20 -26 -21 -63 -11 -33 9 -38 8 -28 -2 8 -7 28 -15
45 -18 25 -5 36 -1 54 18 29 31 22 42 -8 13z"/>
<path d="M5100 3890 c0 -5 14 -17 31 -26 26 -13 36 -13 60 -4 16 7 29 17 29
22 0 6 -8 7 -17 3 -40 -16 -54 -17 -78 -1 -14 9 -25 12 -25 6z"/>
<path d="M7340 4859 l-45 -54 38 28 37 28 0 -38 c0 -21 -11 -64 -24 -95 -13
-32 -22 -58 -20 -58 2 0 14 19 28 43 32 54 51 138 39 173 l-9 27 -44 -54z"/>
<path d="M7187 4652 c-68 -68 -77 -82 -54 -82 10 0 64 62 120 138 21 28 -2 8
-66 -56z m-19 -41 c-13 -17 -27 -30 -32 -30 -6 -1 3 13 19 29 37 38 43 39 13
1z"/>
<path d="M7358 4548 c50 -11 55 -32 21 -88 -16 -26 -17 -31 -5 -20 22 18 46
64 46 88 0 22 -27 32 -75 31 -26 -1 -24 -2 13 -11z"/>
<path d="M7251 4457 c-25 -12 -47 -28 -49 -34 -7 -24 23 -13 63 22 47 40 45
42 -14 12z"/>
<path d="M7253 4283 c-31 -4 -43 -16 -25 -26 4 -3 32 3 62 13 56 18 43 23 -37
13z"/>
<path d="M7202 4138 c5 -14 87 -63 94 -56 4 5 -80 68 -91 68 -4 0 -5 -6 -3
-12z"/>
<path d="M7355 4115 c20 -58 19 -61 -25 -79 -54 -22 -51 -28 5 -9 41 14 45 18
45 48 0 18 -9 43 -19 56 l-20 24 14 -40z"/>
<path d="M7090 4056 c0 -15 40 -69 47 -63 2 3 -3 21 -11 41 -15 36 -36 49 -36
22z"/>
<path d="M6811 3988 c0 -38 1 -40 10 -19 5 14 7 31 4 38 -2 8 0 11 5 8 6 -3
10 -1 10 4 0 6 -7 11 -15 11 -11 0 -15 -11 -14 -42z"/>
<path d="M6957 4012 c-4 -5 -1 -26 6 -48 l12 -39 3 39 c3 38 -10 67 -21 48z"/>
<path d="M7197 3950 c-11 -19 -26 -30 -40 -30 -12 0 -29 -5 -37 -11 -11 -7 -5
-9 25 -7 31 2 44 9 58 32 10 15 17 32 15 37 -2 6 -11 -4 -21 -21z"/>
<path d="M7012 3883 c-18 -13 -30 -14 -57 -5 -42 12 -47 -1 -6 -18 24 -9 34
-9 60 4 17 9 31 21 31 26 0 12 0 12 -28 -7z"/>
<path d="M4395 4819 c11 -38 51 -102 76 -124 l23 -20 -23 35 c-35 55 -55 99
-48 106 3 4 28 -1 55 -9 86 -28 88 -29 40 -3 -25 14 -65 29 -88 32 -41 7 -42
6 -35 -17z"/>
<path d="M7670 4826 c-36 -13 -99 -45 -90 -46 3 0 31 9 63 20 91 32 93 30 42
-54 -38 -64 -42 -74 -21 -56 26 21 76 106 76 128 0 25 -18 27 -70 8z"/>
<path d="M3734 4726 c-8 -20 38 -79 95 -120 65 -47 106 -65 56 -24 -49 40
-115 108 -115 120 0 11 95 10 149 -3 24 -5 46 -8 48 -6 5 6 -116 34 -180 42
-37 5 -48 3 -53 -9z"/>
<path d="M8300 4729 c-30 -4 -73 -15 -95 -24 -32 -12 -34 -14 -10 -10 67 13
175 17 175 8 0 -11 -110 -118 -150 -146 -24 -17 -24 -17 10 -1 57 27 136 90
160 128 34 56 23 62 -90 45z"/>
<path d="M5649 4443 c-13 -16 -12 -17 4 -4 9 7 17 15 17 17 0 8 -8 3 -21 -13z"/>
<path d="M4353 4615 c-18 -8 -33 -17 -33 -21 0 -19 43 -71 72 -88 l33 -19 -32
32 c-39 39 -51 70 -32 82 8 5 37 9 64 10 44 1 46 2 20 9 -44 11 -57 11 -92 -5z"/>
<path d="M4545 4516 c58 -27 108 -43 86 -28 -12 9 -12 11 0 14 8 3 1 3 -16 1
-20 -3 -26 -1 -17 5 10 7 1 12 -32 21 -68 17 -77 12 -21 -13z"/>
<path d="M7700 4620 c-22 -7 -19 -8 17 -9 85 -2 95 -28 36 -88 l-37 -37 32 20
c19 10 43 34 54 52 18 29 19 36 7 47 -18 18 -77 26 -109 15z"/>
<path d="M7570 4526 c-30 -8 -40 -15 -30 -19 8 -4 -1 -5 -20 -2 -24 3 -29 2
-15 -3 17 -8 17 -9 -9 -16 -16 -4 -26 -9 -23 -12 5 -5 167 54 167 62 0 6 -20
3 -70 -10z"/>
<path d="M3825 4445 c-5 -2 -27 -6 -47 -10 -22 -3 -38 -12 -38 -19 0 -22 68
-76 134 -107 86 -41 104 -36 26 6 -36 20 -78 49 -94 65 l-30 29 30 12 c16 6
67 12 114 12 54 1 74 4 55 8 -32 7 -133 10 -150 4z"/>
<path d="M8165 4441 c-19 -4 1 -7 55 -8 47 0 99 -6 115 -13 l30 -12 -41 -37
c-23 -20 -66 -48 -95 -63 -72 -37 -40 -36 37 1 65 31 134 85 134 106 0 27
-155 44 -235 26z"/>
<path d="M4390 4399 c-13 -6 -32 -17 -42 -26 -22 -20 -10 -46 35 -73 39 -24
61 -27 27 -4 -75 50 -62 88 35 105 l40 6 -35 1 c-19 0 -46 -4 -60 -9z"/>
<path d="M7696 4401 c53 -9 95 -36 87 -57 -3 -8 -22 -26 -42 -39 -42 -30 -30
-33 16 -5 44 27 57 53 35 73 -24 22 -68 37 -105 36 -29 -1 -28 -2 9 -8z"/>
<path d="M6785 4335 c-27 -13 -27 -14 -7 -15 26 0 29 -24 6 -60 -14 -22 -12
-22 10 3 16 17 26 40 26 58 0 16 -1 29 -2 28 -2 0 -16 -7 -33 -14z"/>
<path d="M5320 4320 c0 -17 11 -40 26 -57 22 -25 24 -25 10 -3 -22 34 -20 58
5 62 18 3 17 5 -10 15 -30 11 -31 11 -31 -17z"/>
<path d="M4411 4184 c-17 -14 -31 -32 -31 -40 0 -16 50 -44 77 -44 11 1 6 6
-13 14 -18 8 -35 19 -39 26 -8 13 21 49 50 61 16 6 17 8 3 8 -9 1 -30 -11 -47
-25z"/>
<path d="M7685 4201 c29 -12 58 -48 50 -61 -4 -7 -21 -18 -39 -26 -19 -8 -24
-13 -13 -14 24 0 77 28 77 41 0 18 -57 69 -77 68 -16 0 -16 -1 2 -8z"/>
<path d="M3870 4181 c-41 -13 -110 -51 -110 -60 0 -29 136 -89 178 -78 11 3 9
5 -8 6 -38 2 -130 48 -130 65 0 15 60 51 110 67 20 6 21 7 5 7 -11 0 -31 -3
-45 -7z"/>
<path d="M8168 4193 c6 -2 18 -2 25 0 6 3 1 5 -13 5 -14 0 -19 -2 -12 -5z"/>
<path d="M8256 4166 c28 -13 55 -29 59 -36 13 -21 -32 -53 -102 -72 -64 -17
-65 -18 -18 -12 98 12 185 65 152 93 -22 17 -101 51 -122 51 -11 0 3 -11 31
-24z"/>
<path d="M4496 4024 c-9 -8 -19 -27 -22 -41 -8 -31 16 -53 55 -53 25 1 24 1
-6 15 -37 16 -39 24 -18 65 17 33 14 38 -9 14z"/>
<path d="M6174 3855 c-9 -14 -14 -28 -11 -31 3 -3 8 4 12 17 6 17 9 19 16 8 7
-11 9 -10 9 4 0 9 6 17 13 17 8 0 11 -17 9 -59 -4 -59 -3 -60 25 -64 l28 -4
-27 -2 c-28 -1 -28 -2 -28 -71 0 -40 -4 -70 -10 -70 -5 0 -11 15 -11 33 -1 23
-3 26 -6 9 -3 -14 -9 -20 -16 -15 -7 3 -3 -3 7 -15 24 -28 38 -28 62 0 15 19
16 20 2 9 -17 -12 -18 -9 -18 49 0 61 0 62 25 58 24 -5 25 -3 24 36 -1 23 -4
31 -6 19 -3 -15 -12 -23 -24 -23 -16 0 -19 7 -19 50 0 33 4 50 13 50 19 0 -15
20 -35 20 -10 0 -25 -11 -34 -25z"/>
<path d="M6115 3800 c-3 -5 -1 -10 4 -10 6 0 11 5 11 10 0 6 -2 10 -4 10 -3 0
-8 -4 -11 -10z"/>
<path d="M6151 3794 c0 -11 3 -14 6 -6 3 7 2 16 -1 19 -3 4 -6 -2 -5 -13z"/>
<path d="M6298 3748 c5 -85 10 -96 11 -23 0 33 -3 66 -7 73 -5 7 -7 -16 -4
-50z"/>
<path d="M6201 3781 c-1 -19 -5 -23 -26 -19 -21 4 -25 1 -25 -17 0 -18 4 -21
24 -18 16 3 26 0 29 -11 4 -14 5 -14 3 1 0 9 -12 20 -26 24 -24 7 -24 7 -2 8
24 1 37 21 29 43 -3 7 -6 2 -6 -11z"/>
<path d="M6116 3766 c3 -7 -2 -16 -10 -19 -9 -4 -16 -12 -16 -19 0 -9 3 -9 10
2 7 12 11 10 19 -10 9 -23 10 -21 10 18 1 23 -3 42 -9 42 -5 0 -7 -6 -4 -14z"/>
<path d="M6272 3690 c0 -14 2 -19 5 -12 2 6 2 18 0 25 -3 6 -5 1 -5 -13z"/>
<path d="M6152 3680 c0 -14 2 -19 5 -12 2 6 2 18 0 25 -3 6 -5 1 -5 -13z"/>
<path d="M6093 3683 c9 -2 23 -2 30 0 6 3 -1 5 -18 5 -16 0 -22 -2 -12 -5z"/>
<path d="M6125 3660 c3 -5 8 -10 11 -10 2 0 4 5 4 10 0 6 -5 10 -11 10 -5 0
-7 -4 -4 -10z"/>
<path d="M6140 3631 c0 -6 4 -13 10 -16 6 -3 7 1 4 9 -7 18 -14 21 -14 7z"/>
<path d="M6050 3600 c0 -11 2 -20 4 -20 2 0 6 9 9 20 3 11 1 20 -4 20 -5 0 -9
-9 -9 -20z"/>
<path d="M6011 3594 c0 -11 3 -14 6 -6 3 7 2 16 -1 19 -3 4 -6 -2 -5 -13z"/>
<path d="M5999 3480 c-6 -48 -4 -60 9 -44 4 5 5 27 2 49 l-6 40 -5 -45z"/>
<path d="M7635 4010 c21 -41 19 -49 -17 -65 -29 -12 -30 -14 -10 -15 31 0 62
17 62 35 0 23 -21 63 -36 69 -12 4 -11 0 1 -24z"/>
<path d="M3930 3947 c-23 -12 -54 -37 -68 -55 l-25 -32 38 -16 c20 -8 60 -17
89 -19 l51 -4 -50 13 c-70 19 -85 26 -85 40 0 16 34 47 80 75 47 28 24 27 -30
-2z"/>
<path d="M8176 3942 c90 -65 80 -92 -38 -102 l-73 -7 68 -2 c66 -1 137 18 137
37 0 19 -43 63 -81 82 -54 28 -59 25 -13 -8z"/>
<path d="M4620 3860 c-6 -11 -8 -36 -4 -55 6 -34 8 -35 50 -35 23 0 45 4 49 9
3 6 -9 8 -29 4 -28 -4 -36 -1 -46 17 -7 12 -10 35 -8 51 5 34 3 36 -12 9z"/>
<path d="M7508 3851 c2 -16 -1 -39 -8 -51 -10 -18 -18 -21 -46 -17 -20 4 -32
2 -29 -4 4 -5 26 -9 49 -9 37 0 45 4 50 23 9 36 7 64 -7 76 -11 8 -13 5 -9
-18z"/>
<path d="M4776 3733 c-4 -14 -1 -34 9 -53 14 -28 20 -31 48 -25 18 4 39 14 47
22 13 14 13 14 -7 4 -28 -14 -60 -14 -69 1 -4 6 -10 25 -14 42 -6 29 -7 29
-14 9z"/>
<path d="M7347 3710 c-8 -37 -30 -47 -68 -33 -16 6 -29 8 -29 3 0 -9 54 -30
77 -30 18 0 48 69 35 82 -6 6 -12 -3 -15 -22z"/>
<path d="M8090 3711 c7 -13 16 -36 20 -51 8 -27 6 -29 -43 -44 l-52 -16 59 4
c32 3 60 6 62 8 9 9 -20 89 -39 105 -20 18 -20 18 -7 -6z"/>
<path d="M4026 3711 c-18 -19 -41 -89 -33 -98 3 -2 31 -6 63 -9 l59 -4 -53 16
c-57 18 -58 22 -27 87 16 32 14 34 -9 8z"/>
<path d="M4941 3652 c-1 -13 9 -36 20 -51 19 -26 25 -28 52 -20 17 5 38 15 46
23 12 13 8 13 -29 0 -41 -14 -43 -14 -59 8 -9 12 -19 32 -23 43 -6 19 -6 18
-7 -3z"/>
<path d="M5142 3587 c3 -7 20 -21 40 -31 35 -20 35 -20 66 3 18 12 32 27 32
32 0 5 -14 -1 -31 -13 l-30 -23 -40 22 c-23 12 -39 17 -37 10z"/>
<path d="M6862 3589 c2 -7 17 -22 32 -33 27 -21 27 -21 63 -1 20 11 38 25 41
32 2 7 -14 2 -37 -10 l-40 -22 -32 24 c-17 13 -30 18 -27 10z"/>
<path d="M7187 3650 c-4 -14 -13 -33 -21 -43 -12 -16 -17 -16 -55 -4 -48 17
-44 1 5 -19 18 -8 35 -14 38 -14 11 0 47 72 44 87 -3 14 -6 12 -11 -7z"/>
<path d="M4191 3512 c-6 -12 -11 -39 -11 -61 l0 -41 48 0 c29 0 56 6 68 16 18
15 18 15 -3 5 -12 -6 -38 -11 -58 -11 -43 0 -52 17 -37 68 13 41 9 54 -7 24z"/>
<path d="M7920 3530 c0 -3 4 -20 10 -39 13 -46 -2 -71 -41 -71 -17 0 -40 5
-52 11 -21 10 -21 10 -3 -5 12 -10 39 -16 68 -16 l48 0 0 43 c0 24 -7 52 -15
63 -8 10 -15 17 -15 14z"/>
<path d="M7694 3386 c4 -10 1 -36 -6 -58 -12 -40 -12 -40 -52 -34 -22 4 -47
12 -56 18 -8 7 -6 2 5 -9 11 -12 38 -24 61 -28 40 -6 41 -5 58 33 17 37 17 41
1 68 -9 16 -14 21 -11 10z"/>
<path d="M4680 3270 c1 -14 12 -38 26 -54 l25 -28 45 17 c24 9 49 26 55 37 11
20 11 20 -18 0 -15 -11 -40 -23 -55 -26 -24 -5 -30 -1 -52 36 -23 38 -26 40
-26 18z"/>
<path d="M7432 3250 c-20 -35 -26 -39 -50 -34 -15 3 -40 15 -55 26 -28 20 -29
20 -18 0 6 -11 29 -27 52 -36 l42 -17 30 29 c18 18 28 37 25 50 -3 19 -6 16
-26 -18z"/>
<path d="M5130 3302 c0 -6 -18 -21 -41 -32 l-41 -21 -34 26 c-25 19 -34 22
-34 11 0 -8 15 -24 34 -35 31 -20 36 -20 69 -6 35 14 65 50 53 63 -3 3 -6 0
-6 -6z"/>
<path d="M7160 3311 c0 -6 -15 -22 -34 -36 -34 -26 -35 -26 -68 -9 -18 9 -36
22 -40 28 -5 7 -8 5 -8 -6 0 -11 17 -26 41 -38 l41 -21 39 25 c24 16 39 34 39
46 0 11 -2 20 -5 20 -3 0 -5 -4 -5 -9z"/>
<path d="M5351 2709 c20 -64 26 -189 9 -189 -5 0 -10 -15 -10 -34 0 -19 5 -38
10 -41 6 -3 10 1 10 9 0 8 4 17 9 20 11 7 101 -72 101 -89 0 -8 5 -17 12 -21
8 -5 9 0 6 14 -9 31 10 38 36 13 12 -12 32 -21 44 -21 20 0 22 5 22 53 0 32
-6 61 -16 75 -18 27 -39 20 -24 -8 5 -10 10 -38 10 -61 0 -35 -2 -40 -15 -29
-19 16 -31 98 -16 113 18 18 13 27 -14 27 -24 0 -25 -3 -25 -55 0 -56 -13 -74
-23 -32 -9 33 -10 150 -3 168 5 10 -16 35 -68 82 l-74 66 19 -60z m81 -149 c4
-52 6 -95 5 -96 -2 -2 -14 7 -29 19 -25 22 -25 23 -15 100 7 45 15 76 22 74 5
-2 13 -46 17 -97z"/>
<path d="M6773 2593 c-13 -9 -23 -26 -23 -39 0 -22 -2 -23 -20 -12 -32 20 -62
-18 -68 -84 -3 -43 -1 -56 15 -71 19 -17 21 -16 46 4 18 13 27 30 26 47 0 27
0 27 -11 5 -13 -27 -33 -30 -42 -7 -9 25 -7 72 4 79 6 3 10 -1 10 -9 0 -20 14
-20 31 0 11 14 13 14 22 -1 5 -9 6 -34 2 -56 -7 -38 -6 -40 11 -31 54 29 83
79 69 121 -5 17 -10 19 -31 11 -24 -10 -25 -9 -18 25 7 40 7 40 -23 18z m47
-98 c0 -8 -4 -17 -10 -20 -6 -4 -10 5 -10 20 0 15 4 24 10 20 6 -3 10 -12 10
-20z"/>
<path d="M5615 2490 c4 -6 6 -42 6 -80 0 -58 3 -71 19 -80 25 -13 33 1 25 41
-6 24 -4 30 6 27 9 -3 14 -20 13 -46 0 -34 3 -42 24 -52 14 -6 26 -9 27 -8 2
2 -1 28 -7 58 -5 30 -7 66 -4 81 5 29 -11 43 -39 33 -11 -5 -12 -11 -4 -25 8
-15 6 -19 -7 -19 -13 0 -15 7 -12 31 4 25 1 32 -19 40 -31 12 -36 11 -28 -1z"/>
<path d="M5757 2422 c-21 -23 -21 -52 -2 -99 24 -57 64 -72 86 -32 10 20 9 21
-15 15 -19 -5 -28 -1 -36 13 -17 33 -13 40 22 30 17 -5 33 -7 35 -5 6 6 -18
60 -34 78 -20 23 -36 23 -56 0z m43 -27 c0 -14 -4 -25 -10 -25 -11 0 -14 33
-3 43 11 11 13 8 13 -18z"/>
<path d="M5858 2348 c2 -46 9 -89 14 -95 6 -7 28 -13 48 -13 36 0 39 2 44 38
3 20 6 58 5 84 -1 41 -4 47 -27 51 l-25 5 6 -74 c3 -41 2 -74 -3 -74 -14 0
-20 29 -20 91 0 32 -4 59 -9 59 -5 0 -16 2 -24 5 -11 5 -13 -8 -9 -77z"/>
<path d="M5988 2405 c-2 -3 0 -37 5 -76 6 -50 6 -74 -2 -82 -20 -20 -11 -25
54 -29 73 -3 73 -3 34 73 -19 39 -17 51 8 42 11 -4 14 0 11 18 -5 35 -34 36
-46 2 l-10 -28 -1 33 c-1 21 -6 32 -16 32 -8 0 -15 5 -15 10 0 10 -13 14 -22
5z m59 -157 c-3 -7 -5 -2 -5 12 0 14 2 19 5 13 2 -7 2 -19 0 -25z"/>
<path d="M6251 2389 c-31 -9 -33 -12 -26 -42 8 -41 9 -73 1 -93 -11 -28 -26
-4 -26 42 0 25 -5 54 -10 65 -20 36 -80 18 -80 -23 0 -24 40 -25 41 0 0 11 2
13 6 4 3 -8 -9 -27 -26 -42 -25 -24 -29 -33 -22 -52 7 -19 17 -24 56 -26 72
-5 93 3 104 41 l10 32 -2 -30 c-2 -23 2 -31 18 -33 28 -3 54 15 38 26 -8 5
-14 35 -15 75 -3 73 -4 74 -67 56z m25 -56 c-11 -11 -19 6 -11 24 8 17 8 17
12 0 3 -10 2 -21 -1 -24z m-113 -53 c3 -11 1 -23 -4 -26 -5 -3 -9 6 -9 20 0
31 6 34 13 6z"/>
<path d="M5200 2065 c0 -28 40 -75 64 -75 9 0 4 10 -15 29 -16 16 -29 36 -29
45 0 8 -4 18 -10 21 -6 4 -10 -5 -10 -20z"/>
<path d="M5317 2019 c8 -8 16 -8 30 0 16 9 14 10 -11 11 -22 0 -27 -3 -19 -11z"/>
<path d="M5259 1903 c-14 -9 -31 -23 -36 -32 -16 -25 -26 -81 -15 -81 5 0 13
15 16 34 4 22 20 46 42 65 38 34 35 40 -7 14z"/>
<path d="M5549 1887 c9 -11 27 -17 55 -16 l41 1 -43 9 c-23 4 -48 11 -55 15
-8 5 -7 2 2 -9z"/>
<path d="M5284 1819 l-19 -22 32 17 c18 9 34 16 38 16 3 0 5 -21 5 -47 0 -55
26 -119 60 -148 21 -18 20 -16 -5 23 -21 32 -29 58 -33 112 -5 68 -5 70 -32
70 -15 0 -35 -9 -46 -21z"/>
<path d="M6920 2060 c-7 -17 -24 -40 -38 -50 -19 -16 -21 -20 -8 -20 26 0 66
46 66 75 0 33 -5 32 -20 -5z"/>
<path d="M6793 2019 c14 -8 22 -8 30 0 8 8 3 11 -18 11 -26 -1 -28 -2 -12 -11z"/>
<path d="M6864 1899 c32 -25 47 -52 57 -99 l7 -35 1 44 c1 36 -4 48 -33 77
-19 19 -40 34 -46 34 -7 0 -1 -9 14 -21z"/>
<path d="M6588 1894 c-3 -3 -28 -9 -55 -14 l-48 -8 41 -1 c22 0 49 6 60 14 10
8 16 15 13 15 -3 0 -8 -3 -11 -6z"/>
<path d="M6780 1788 c-1 -59 -19 -119 -47 -151 l-18 -22 24 20 c34 29 61 92
61 148 0 26 2 47 5 47 4 0 20 -7 38 -16 l32 -17 -19 22 c-11 12 -31 21 -48 21
-27 0 -28 -2 -28 -52z"/>
<path d="M6290 2107 c0 -4 18 -40 39 -80 79 -145 92 -275 36 -388 l-26 -54 26
30 c51 61 67 164 40 268 -20 76 -113 259 -115 224z"/>
<path d="M1403 1073 c-13 -20 -19 -53 -21 -132 l-4 -106 33 32 c27 25 38 30
51 22 62 -35 101 110 52 189 -22 34 -87 31 -111 -5z"/>
<path d="M6442 733 l3 -128 51 -3 c27 -2 62 2 77 7 26 10 27 13 27 86 l0 75
-52 26 c-29 15 -66 35 -81 46 l-28 20 3 -129z"/>
<path d="M10434 938 c-74 -100 -112 -187 -98 -223 11 -28 51 -37 85 -19 34 17
84 90 101 147 9 30 8 48 -7 97 -10 33 -22 60 -27 60 -4 0 -29 -28 -54 -62z"/>
</g>
</svg>
