<?xml version="1.0" standalone="no"?>
<!DOCTYPE svg PUBLIC "-//W3C//DTD SVG 20010904//EN"
 "http://www.w3.org/TR/2001/REC-SVG-20010904/DTD/svg10.dtd">
<svg version="1.0" xmlns="http://www.w3.org/2000/svg"
 width="1864.000000pt" height="880.000000pt" viewBox="0 0 1864.000000 880.000000"
 preserveAspectRatio="xMidYMid meet">

<g transform="translate(0.000000,880.000000) scale(0.100000,-0.100000)"
fill="#000000" stroke="none">
<path d="M0 8260 l0 -520 9320 0 9320 0 0 520 0 520 -9320 0 -9320 0 0 -520z
m4161 61 c21 -22 29 -39 29 -66 0 -27 -8 -44 -29 -66 -27 -27 -35 -29 -105
-29 l-76 0 0 95 0 95 76 0 c70 0 78 -2 105 -29z m138 -27 l34 -57 34 57 c27
43 40 56 59 56 24 0 24 -1 24 -95 0 -95 0 -95 -25 -95 -23 0 -25 3 -25 53 l-1
52 -25 -42 c-14 -24 -33 -43 -43 -43 -9 0 -26 17 -38 38 l-22 37 -1 -47 c0
-44 -2 -48 -25 -48 -25 0 -25 0 -25 95 0 92 1 95 23 95 17 0 31 -14 56 -56z
m235 21 c11 -19 22 -35 25 -35 3 0 16 16 29 35 l22 35 110 0 c103 0 110 -1
110 -20 0 -16 -7 -20 -35 -20 l-35 0 0 -75 c0 -73 -1 -75 -25 -75 -24 0 -25 2
-25 74 l0 74 -35 4 c-32 4 -37 1 -65 -45 -16 -26 -30 -62 -30 -78 0 -24 -4
-29 -25 -29 -22 0 -25 4 -25 35 0 24 -12 54 -35 91 -19 30 -35 57 -35 59 0 3
12 5 28 5 21 0 32 -8 46 -35z m466 15 c24 -24 26 -72 5 -90 -8 -7 -15 -18 -15
-25 0 -7 7 -18 15 -25 23 -19 18 -30 -13 -30 -20 0 -33 7 -42 25 -7 14 -22 25
-32 25 -13 0 -18 -7 -18 -25 0 -21 -5 -25 -30 -25 l-30 0 0 95 0 95 70 0 c57
0 74 -4 90 -20z m209 6 c26 -14 51 -53 51 -81 0 -82 -121 -127 -189 -69 -26
21 -31 33 -31 69 0 36 5 48 31 69 35 30 93 35 138 12z m271 -23 l0 -37 38 37
c26 26 47 37 67 37 l29 0 -37 -38 c-20 -21 -37 -42 -37 -46 0 -5 18 -30 41
-57 l41 -49 -31 0 c-22 0 -39 9 -60 32 -30 34 -51 31 -51 -8 0 -20 -5 -24 -30
-24 l-30 0 0 95 0 95 30 0 c28 0 30 -3 30 -37z m210 2 c0 -34 1 -35 40 -35 39
0 40 1 40 35 0 31 3 35 25 35 25 0 25 0 25 -95 0 -95 0 -95 -25 -95 -22 0 -25
4 -25 40 l0 40 -40 0 -40 0 0 -40 c0 -38 -2 -40 -30 -40 l-30 0 0 95 0 95 30
0 c28 0 30 -3 30 -35z m299 -4 c11 -21 31 -64 45 -95 l25 -56 -29 0 c-20 0
-31 6 -35 20 -5 16 -15 20 -50 20 -35 0 -45 -4 -50 -20 -4 -14 -15 -20 -36
-20 l-29 0 19 39 c11 21 31 64 45 95 21 47 29 56 50 56 20 0 30 -9 45 -39z
m131 -21 c14 -33 27 -60 30 -60 3 0 16 27 30 60 22 52 29 60 52 60 l27 0 -42
-95 c-37 -85 -44 -95 -68 -95 -23 0 -31 10 -64 83 -20 45 -39 88 -42 95 -3 8
5 12 23 12 26 0 32 -7 54 -60z m301 42 c28 -23 31 -79 5 -98 -17 -12 -17 -14
4 -43 l21 -31 -29 0 c-21 0 -35 8 -46 25 -9 14 -25 25 -36 25 -15 0 -20 -7
-20 -25 0 -20 -5 -25 -25 -25 -25 0 -25 0 -25 95 l0 95 64 0 c47 0 70 -5 87
-18z m230 -11 c61 -62 19 -161 -70 -161 -53 0 -89 18 -107 51 -37 72 12 138
104 139 35 0 49 -6 73 -29z m259 14 c53 -28 77 -107 45 -152 -13 -18 -25 -21
-89 -21 -57 -1 -78 3 -89 16 -45 50 -7 141 54 128 15 -3 31 -1 34 4 4 6 -7 10
-25 10 -73 0 -120 -58 -98 -120 13 -39 58 -62 111 -58 32 2 42 -1 42 -12 0
-11 -13 -16 -49 -18 -92 -6 -146 37 -146 115 0 55 12 79 53 103 39 24 116 26
157 5z m140 -20 c0 -34 1 -35 40 -35 39 0 40 1 40 35 0 32 2 35 30 35 l30 0 0
-95 0 -95 -30 0 c-28 0 -30 2 -30 40 l0 40 -40 0 -40 0 0 -40 c0 -36 -2 -40
-25 -40 -25 0 -25 0 -25 95 0 95 0 95 25 95 22 0 25 -4 25 -35z m349 9 c26
-21 31 -33 31 -69 0 -36 -5 -48 -31 -69 -53 -45 -146 -31 -175 25 -17 34 -17
57 0 88 31 56 123 69 175 25z m211 6 c0 -16 -7 -20 -30 -20 l-30 0 0 -75 c0
-73 -1 -75 -25 -75 -24 0 -25 2 -25 75 l0 75 -30 0 c-23 0 -30 4 -30 20 0 18
7 20 85 20 78 0 85 -2 85 -20z m101 -36 l32 -57 35 57 c26 42 41 56 58 56 24
0 24 -2 24 -95 0 -94 0 -95 -24 -95 -23 0 -25 5 -28 48 l-3 47 -23 -37 c-13
-21 -30 -38 -38 -38 -8 0 -25 17 -37 38 l-22 37 -3 -47 c-3 -43 -5 -48 -28
-48 -24 0 -24 1 -24 95 0 94 0 95 24 95 19 0 32 -12 57 -56z m318 17 c11 -21
31 -64 45 -95 l25 -56 -29 0 c-20 0 -31 6 -35 20 -5 16 -15 20 -50 20 -35 0
-45 -4 -50 -20 -4 -14 -15 -20 -36 -20 l-29 0 19 39 c11 21 31 64 45 95 21 47
29 56 50 56 20 0 30 -9 45 -39z m141 -56 l0 -95 -30 0 -30 0 0 95 0 95 30 0
30 0 0 -95z m90 20 l0 -75 50 0 c43 0 50 -3 50 -20 0 -18 -7 -20 -80 -20 l-80
0 0 95 0 95 30 0 30 0 0 -75z m345 63 c29 -13 31 -21 10 -38 -12 -10 -19 -10
-27 -2 -30 30 -98 1 -98 -41 0 -45 67 -76 98 -45 8 8 15 8 27 -2 21 -17 19
-25 -10 -38 -48 -22 -104 -15 -136 17 -61 62 -19 161 70 161 22 0 52 -5 66
-12z m228 -17 c16 -16 22 -34 22 -66 0 -62 -27 -87 -99 -93 -51 -4 -57 -2 -86
26 -22 23 -30 40 -30 67 0 27 8 44 30 67 29 28 35 30 86 26 39 -3 62 -11 77
-27z m136 -27 l34 -57 34 57 c27 43 40 56 59 56 24 0 24 -1 24 -95 0 -95 0
-95 -25 -95 -23 0 -25 3 -25 53 l-1 52 -25 -42 c-14 -24 -33 -43 -43 -43 -9 0
-26 17 -38 38 l-22 37 -1 -47 c0 -44 -2 -48 -25 -48 -25 0 -25 0 -25 95 0 92
1 95 23 95 17 0 31 -14 56 -56z m2945 30 c10 -4 16 -18 16 -39 0 -34 -13 -45
-51 -45 -10 0 -19 -7 -19 -15 0 -8 -7 -15 -15 -15 -12 0 -15 13 -15 60 l0 60
34 0 c19 0 41 -3 50 -6z m124 -6 c15 -15 15 -51 0 -66 -8 -8 -8 -15 2 -27 11
-13 9 -15 -9 -15 -12 0 -24 7 -27 15 -4 8 -10 15 -15 15 -5 0 -9 -7 -9 -15 0
-8 -9 -15 -20 -15 -18 0 -20 7 -20 60 l0 60 43 0 c24 0 48 -5 55 -12z m127 -2
c11 -8 18 -26 18 -46 0 -38 -23 -60 -64 -60 -36 0 -59 24 -59 60 0 16 7 36 16
44 19 20 64 21 89 2z m93 -43 c-3 -52 -5 -58 -26 -61 -34 -5 -53 5 -46 23 5
11 10 13 19 5 17 -14 25 -2 25 37 0 26 -4 33 -20 33 -11 0 -20 5 -20 10 0 6
16 10 35 10 l36 0 -3 -57z m122 47 c0 -5 -13 -10 -30 -10 -20 0 -30 -5 -30
-15 0 -9 9 -15 25 -15 14 0 25 -4 25 -10 0 -5 -11 -10 -25 -10 -16 0 -25 -6
-25 -15 0 -10 10 -15 30 -15 17 0 30 -4 30 -10 0 -5 -22 -10 -50 -10 l-50 0 0
60 0 60 50 0 c28 0 50 -4 50 -10z m220 0 c0 -6 -9 -10 -20 -10 -17 0 -20 -7
-20 -50 0 -38 -4 -50 -15 -50 -11 0 -15 12 -15 50 0 43 -3 50 -19 50 -11 0
-23 -5 -26 -10 -4 -7 -13 -7 -24 0 -12 6 -22 5 -29 -2 -27 -27 -3 -75 29 -58
11 7 20 7 24 0 22 -35 -65 -43 -89 -8 -20 28 -20 48 -1 75 14 19 25 22 110 22
56 0 95 -3 95 -9z m90 -6 c0 -12 -6 -15 -24 -10 -14 3 -27 2 -31 -4 -3 -5 5
-12 19 -16 37 -9 50 -28 36 -54 -9 -17 -19 -20 -47 -18 -20 2 -39 9 -41 17 -3
10 2 13 22 9 37 -7 42 8 6 21 -54 18 -34 71 27 71 24 0 33 -5 33 -16z m508 4
c15 -15 15 -51 0 -66 -8 -8 -8 -15 2 -27 11 -13 9 -15 -9 -15 -12 0 -24 7 -27
15 -4 8 -10 15 -15 15 -5 0 -9 -7 -9 -15 0 -8 -9 -15 -20 -15 -18 0 -20 7 -20
60 l0 60 43 0 c24 0 48 -5 55 -12z m122 2 c0 -5 -13 -10 -30 -10 -20 0 -30 -5
-30 -15 0 -9 9 -15 25 -15 14 0 25 -4 25 -10 0 -5 -11 -10 -25 -10 -16 0 -25
-6 -25 -15 0 -13 11 -15 60 -12 66 3 85 13 47 22 -38 10 -51 29 -37 55 9 17
19 20 48 18 38 -3 48 -23 12 -23 -28 -1 -26 -19 2 -25 26 -7 38 -48 17 -61 -7
-4 -53 -8 -101 -8 l-88 0 0 59 0 60 50 0 c28 0 50 -4 50 -10z m150 -33 c0 -48
5 -58 26 -50 9 3 14 21 14 49 0 32 4 44 15 44 11 0 15 -12 15 -48 0 -55 -12
-72 -51 -72 -40 0 -59 24 -59 76 0 37 3 44 20 44 17 0 20 -7 20 -43z m135 12
c13 -24 19 -28 30 -19 8 7 17 20 20 31 4 10 13 19 21 19 11 0 14 -15 14 -60 0
-47 -3 -60 -15 -60 -10 0 -15 10 -16 28 0 27 -1 27 -11 5 -14 -29 -23 -29 -42
-1 l-16 22 0 -27 c0 -17 -5 -27 -15 -27 -12 0 -15 13 -15 60 0 69 19 81 45 29z
m205 21 c0 -5 -13 -10 -30 -10 -20 0 -30 -5 -30 -15 0 -9 9 -15 25 -15 14 0
25 -4 25 -10 0 -5 -11 -10 -25 -10 -16 0 -25 -6 -25 -15 0 -10 10 -15 30 -15
17 0 30 -4 30 -10 0 -5 -22 -10 -50 -10 l-50 0 0 60 0 60 50 0 c28 0 50 -4 50
-10z m512 -40 c11 -64 6 -70 -52 -70 l-50 0 0 61 0 60 47 -3 48 -3 7 -45z m58
6 c0 -38 3 -45 22 -48 12 -2 23 -9 26 -15 2 -9 -10 -13 -42 -13 l-46 0 0 60
c0 53 2 60 20 60 17 0 20 -7 20 -44z m162 27 c41 -37 10 -103 -48 -103 -34 0
-64 28 -64 60 0 9 7 26 16 38 18 27 69 30 96 5z m133 7 c11 -17 -5 -31 -23
-21 -22 12 -52 -4 -52 -29 0 -11 9 -24 20 -30 17 -9 22 -7 30 16 13 33 34 19
28 -17 -2 -20 -10 -25 -39 -27 -24 -2 -42 3 -53 13 -20 21 -21 69 0 89 17 18
79 22 89 6z m-6250 -135 c0 -22 -31 -33 -47 -17 -17 17 -1 44 24 40 15 -2 23
-10 23 -23z m-3027 -32 c3 -10 -16 -13 -72 -13 -70 0 -87 6 -69 24 12 12 136
2 141 -11z"/>
<path d="M4040 8255 l0 -55 34 0 c38 0 59 19 59 55 0 36 -21 55 -59 55 l-34 0
0 -55z"/>
<path d="M4900 8280 c0 -25 4 -30 24 -30 13 0 29 7 36 15 19 23 4 45 -30 45
-27 0 -30 -3 -30 -30z"/>
<path d="M5107 8292 c-34 -38 -8 -92 44 -92 33 0 49 18 49 55 0 17 -5 36 -12
43 -18 18 -63 14 -81 -6z"/>
<path d="M5932 8265 c-11 -23 -9 -25 12 -25 19 0 23 4 19 20 -8 31 -19 32 -31
5z"/>
<path d="M6320 8281 c0 -26 4 -31 23 -31 57 1 66 53 9 58 -30 3 -32 1 -32 -27z"/>
<path d="M6530 8295 c-7 -8 -12 -26 -12 -40 0 -34 19 -55 52 -55 31 0 60 27
60 57 0 44 -72 71 -100 38z"/>
<path d="M6910 8246 c0 -25 5 -46 10 -46 6 0 10 18 10 39 0 22 -4 43 -10 46
-6 4 -10 -12 -10 -39z"/>
<path d="M6810 8255 c-18 -22 -3 -57 23 -53 37 5 33 67 -4 68 -4 0 -12 -7 -19
-15z"/>
<path d="M7288 8299 c-25 -14 -24 -75 1 -89 45 -23 91 -1 91 45 0 46 -50 69
-92 44z"/>
<path d="M7972 8265 c-11 -23 -9 -25 12 -25 19 0 23 4 19 20 -8 31 -19 32 -31
5z"/>
<path d="M8707 8292 c-22 -25 -21 -55 2 -76 27 -25 72 -17 90 15 13 24 13 29
-2 53 -21 31 -66 35 -90 8z"/>
<path d="M11860 8285 c0 -20 4 -26 18 -23 9 2 17 12 17 23 0 11 -8 21 -17 23
-14 3 -18 -3 -18 -23z"/>
<path d="M11980 8285 c0 -27 9 -32 28 -13 8 8 9 15 1 25 -17 20 -29 15 -29
-12z"/>
<path d="M12102 8298 c-28 -28 3 -83 33 -58 8 7 15 20 15 29 0 17 -18 41 -30
41 -3 0 -11 -5 -18 -12z"/>
<path d="M13140 8285 c0 -27 9 -32 28 -13 8 8 9 15 1 25 -17 20 -29 15 -29
-12z"/>
<path d="M14250 8295 c0 -10 7 -15 18 -13 21 4 19 22 -2 26 -10 2 -16 -3 -16
-13z"/>
<path d="M14250 8245 c0 -11 7 -15 23 -13 12 2 22 8 22 13 0 6 -10 11 -22 13
-16 2 -23 -2 -23 -13z"/>
<path d="M14483 8303 c-18 -7 -16 -60 2 -67 14 -5 45 18 45 34 0 8 -29 41 -33
39 -1 0 -8 -3 -14 -6z"/>
<path d="M9235 7676 c-52 -16 -81 -32 -128 -69 -45 -37 -97 -115 -97 -148 -1
-16 -11 -31 -33 -44 -19 -12 -44 -45 -65 -85 -27 -53 -44 -71 -97 -107 -207
-139 -374 -376 -442 -628 -24 -90 -27 -117 -27 -275 0 -159 3 -184 28 -275 32
-118 105 -275 171 -364 l47 -63 36 53 c126 188 310 286 555 298 l27 1 0 80 0
80 -42 26 c-109 67 -192 178 -228 302 -20 68 -27 81 -55 96 -45 25 -55 53 -55
157 0 122 30 178 88 162 20 -5 22 -2 22 41 0 75 29 196 62 257 16 31 52 82 80
113 l50 57 33 -25 c54 -41 149 -68 261 -74 106 -5 177 9 256 49 l38 20 63 -67
c79 -84 93 -112 117 -231 27 -132 26 -130 60 -137 51 -10 70 -55 70 -163 0
-106 -10 -134 -55 -159 -28 -15 -35 -28 -55 -96 -36 -124 -119 -235 -227 -302
l-43 -26 0 -79 0 -79 68 -7 c118 -11 171 -26 262 -71 98 -49 192 -132 253
-223 l35 -53 47 63 c66 89 139 246 171 364 25 91 28 116 28 275 0 158 -3 185
-27 275 -67 249 -226 477 -437 626 -47 33 -66 53 -75 83 -8 21 -28 56 -45 77
l-31 40 20 42 c26 54 27 117 2 165 -33 65 -100 79 -187 41 -62 -28 -145 -28
-251 0 -90 23 -187 26 -248 7z"/>
<path d="M9134 6970 c-38 -8 -92 -39 -99 -58 -8 -22 -5 -22 55 -6 30 8 90 16
132 17 43 1 78 3 78 4 0 2 -12 10 -26 19 -31 21 -98 32 -140 24z"/>
<path d="M9657 6970 c-39 -7 -87 -29 -87 -39 0 -3 35 -7 78 -8 42 -1 102 -9
132 -17 30 -8 57 -13 59 -10 7 6 -32 45 -59 59 -36 18 -79 23 -123 15z"/>
<path d="M9115 6798 c-22 -11 -45 -37 -45 -49 0 -4 12 -1 28 7 36 19 112 18
140 -2 19 -13 22 -13 22 0 0 42 -96 72 -145 44z"/>
<path d="M9626 6789 c-34 -27 -37 -58 -4 -35 29 20 100 20 138 1 17 -9 30 -14
30 -11 0 56 -111 87 -164 45z"/>
<path d="M9265 6429 c-19 -30 34 -117 87 -145 17 -9 52 -16 78 -16 57 0 101
21 135 67 29 37 38 95 18 102 -7 3 -13 -2 -13 -11 0 -27 -36 -36 -140 -36 -95
0 -102 2 -124 25 -26 28 -32 30 -41 14z"/>
<path d="M6500 939 c-55 -22 -77 -90 -45 -137 10 -13 38 -28 73 -37 86 -24
102 -32 102 -55 0 -40 -57 -46 -156 -15 -15 5 -23 0 -32 -20 -11 -23 -10 -27
16 -37 15 -6 57 -13 93 -16 98 -6 150 25 152 93 1 49 -26 73 -109 96 -79 22
-93 32 -78 56 18 29 60 37 109 21 42 -14 44 -14 54 9 14 32 15 29 -20 42 -39
13 -125 13 -159 0z"/>
<path d="M6826 928 c-112 -65 -108 -231 7 -289 53 -27 153 -23 194 7 99 73 99
205 0 278 -43 32 -150 34 -201 4z m164 -57 c52 -38 51 -135 -3 -175 -71 -53
-167 -2 -167 88 0 96 92 143 170 87z"/>
<path d="M7170 785 l0 -165 35 0 35 0 0 98 0 97 48 -77 c62 -102 73 -102 132
0 l45 77 3 -97 3 -98 34 0 35 0 0 165 0 165 -29 0 c-27 0 -36 -10 -88 -97 -33
-54 -63 -98 -69 -97 -5 1 -35 45 -68 98 -52 85 -62 96 -87 96 l-29 0 0 -165z"/>
<path d="M7630 785 l0 -165 125 0 125 0 0 30 0 30 -90 0 -90 0 0 40 0 40 80 0
80 0 0 30 0 30 -80 0 -80 0 0 35 0 35 90 0 90 0 0 30 0 30 -125 0 -125 0 0
-165z"/>
<path d="M8165 936 c-71 -32 -110 -111 -93 -191 32 -149 269 -172 337 -32 12
24 21 56 21 72 0 50 -38 113 -84 140 -49 29 -130 33 -181 11z m158 -77 c55
-59 23 -167 -53 -183 -35 -6 -87 12 -109 37 -19 24 -24 97 -9 127 18 34 75 62
113 54 17 -3 42 -19 58 -35z"/>
<path d="M8490 785 l0 -165 35 0 35 0 0 60 0 60 80 0 80 0 0 30 0 30 -80 0
-80 0 0 45 0 45 90 0 90 0 0 30 0 30 -125 0 -125 0 0 -165z"/>
<path d="M8930 785 l0 -165 35 0 34 0 3 97 3 98 48 -78 c32 -50 55 -77 67 -77
11 0 33 25 60 70 23 39 46 73 51 76 5 3 9 -38 9 -90 l0 -96 35 0 35 0 0 165 0
165 -32 0 c-31 0 -37 -6 -92 -100 -32 -55 -61 -100 -65 -100 -4 0 -34 45 -67
100 -55 93 -61 99 -91 100 l-33 0 0 -165z"/>
<path d="M9350 945 c0 -2 27 -48 60 -102 57 -92 60 -101 60 -160 l0 -63 40 0
40 0 0 61 c0 57 4 67 60 158 33 54 60 101 60 104 0 4 -16 7 -35 7 -19 0 -35
-3 -35 -7 0 -5 -20 -39 -44 -77 l-43 -68 -44 76 c-42 73 -45 76 -81 76 -21 0
-38 -2 -38 -5z"/>
<path d="M9850 785 l0 -165 35 0 c35 0 35 0 35 45 l0 45 53 1 c28 0 68 5 87
12 40 14 80 67 80 107 0 40 -40 93 -80 107 -19 7 -74 12 -122 12 l-88 1 0
-165z m192 88 c22 -20 23 -61 1 -85 -12 -13 -30 -18 -70 -18 l-53 0 0 60 0 60
52 0 c34 0 58 -6 70 -17z"/>
<path d="M10200 785 l0 -165 35 0 c35 0 35 0 35 45 l0 45 40 0 c35 0 42 -4 70
-45 28 -41 35 -45 70 -45 l40 0 -36 50 -36 50 31 29 c26 24 31 36 31 76 0 25
-5 55 -11 67 -20 36 -86 58 -181 58 l-88 0 0 -165z m188 89 c14 -10 22 -26 22
-44 0 -39 -32 -60 -92 -60 l-48 0 0 60 0 60 48 0 c27 0 57 -7 70 -16z"/>
<path d="M10618 930 c-58 -32 -83 -74 -83 -145 0 -47 5 -67 23 -93 74 -104
259 -93 317 18 8 16 15 50 15 75 0 57 -19 96 -66 132 -49 37 -150 44 -206 13z
m137 -44 c85 -36 85 -166 0 -202 -111 -46 -203 95 -118 180 21 22 34 27 76 35
4 0 23 -5 42 -13z"/>
<path d="M10930 920 l0 -30 60 0 60 0 0 -100 c0 -96 -1 -101 -24 -111 -18 -9
-30 -7 -56 6 -31 16 -33 16 -52 -2 -18 -19 -18 -20 2 -38 14 -12 41 -20 78
-23 105 -7 132 37 132 221 l0 107 -100 0 -100 0 0 -30z"/>
<path d="M11210 785 l0 -165 125 0 125 0 0 30 0 30 -90 0 -90 0 0 40 0 40 80
0 80 0 0 30 0 30 -80 0 -80 0 0 35 0 35 90 0 90 0 0 30 0 30 -125 0 -125 0 0
-165z"/>
<path d="M11602 933 c-109 -53 -122 -206 -25 -280 56 -43 170 -44 223 -3 l25
19 -20 20 -20 21 -41 -20 c-67 -34 -143 -1 -157 68 -19 98 68 166 157 122 40
-19 41 -19 60 -1 10 11 15 24 11 31 -24 39 -153 53 -213 23z"/>
<path d="M11840 920 c0 -30 1 -30 55 -30 l55 0 0 -135 0 -135 35 0 35 0 0 135
0 135 55 0 c54 0 55 0 55 30 l0 30 -145 0 -145 0 0 -30z"/>
<path d="M12199 927 c-20 -13 -37 -36 -43 -55 -14 -50 14 -82 100 -110 81 -26
103 -44 85 -66 -20 -24 -62 -28 -116 -11 -46 14 -51 13 -62 -2 -19 -25 -16
-33 22 -49 45 -19 139 -18 180 1 50 24 71 89 42 129 -7 10 -49 30 -93 44 -64
22 -80 31 -82 49 -5 34 38 47 101 32 51 -12 66 -5 67 29 0 38 -148 45 -201 9z"/>
<path d="M9396 261 c-24 -46 -27 -49 -75 -55 -62 -8 -65 -24 -17 -67 19 -17
33 -36 31 -42 -2 -7 -6 -31 -9 -55 -6 -37 -4 -42 14 -42 10 0 35 8 55 17 33
16 37 16 70 0 20 -9 45 -17 55 -17 18 0 20 5 14 43 -3 23 -7 47 -9 54 -2 6 12
25 31 42 48 43 45 59 -17 67 -48 6 -51 9 -75 55 -13 27 -29 49 -34 49 -5 0
-21 -22 -34 -49z"/>
<path d="M7975 159 c-4 -6 -3 -15 2 -20 5 -5 233 -8 559 -7 480 3 549 5 549
18 0 13 -69 15 -552 18 -392 1 -554 -1 -558 -9z"/>
<path d="M9775 159 c-4 -6 -3 -15 2 -20 5 -5 233 -8 559 -7 480 3 549 5 549
18 0 13 -69 15 -552 18 -392 1 -554 -1 -558 -9z"/>
</g>
</svg>
